<svg width="117" height="117" viewBox="0 0 117 117" fill="none" xmlns="http://www.w3.org/2000/svg">
<path d="M54.9386 83.9122C49.5226 78.7573 44.1526 75.348 38.6381 73.5633C35.0189 72.3921 31.6967 71.8984 27.4294 71.8977C24.2003 71.8971 21.0798 72.1817 17.6315 72.7912L16.7598 72.9452L16.8021 72.7577C16.8253 72.6546 18.8431 65.0922 21.2859 55.9524L25.7274 39.3346L28.9291 37.2614C30.6901 36.1211 32.7053 34.8385 33.4074 34.4112C39.7118 30.574 43.6816 29.2897 46.3462 30.2253C46.9253 30.4287 47.2179 30.5874 47.6765 30.9471C48.402 31.5162 49.1187 32.4969 49.4742 33.4071C49.5676 33.6462 49.5122 33.6044 49.2314 33.224C47.5347 30.925 44.9971 30.2569 41.6007 31.215C40.6772 31.4755 39.6419 31.8955 38.2293 32.5827C36.022 33.6565 33.7072 35.0656 29.0667 38.1601L26.5475 39.84L22.7481 54.828C20.6583 63.0714 18.948 69.9014 18.9474 70.0059C18.9459 70.2501 18.9262 70.2535 20.7803 69.6897C23.9654 68.7211 27.0573 68.0897 30.2912 67.7473C31.8733 67.5798 36.2209 67.5786 37.616 67.7452C44.3437 68.5489 49.0273 71.0911 52.0587 75.5847C52.6266 76.4264 53.4521 78.0112 53.8218 78.9693C54.0258 79.498 54.1048 79.6326 54.2109 79.6326C54.3315 79.6326 54.8853 77.6853 54.9268 77.0538C56.7807 75.7705 55.7516 80.8526 58.1912 79.6898C58.2345 79.7319 58.6455 79.5731 59.3671 79.2353C64.5189 76.8235 69.8671 75.5087 76.9317 74.9172C78.646 74.7736 83.8695 74.7164 85.9093 74.8188C88.5373 74.9507 91.0002 75.1839 93.353 75.5237C94.7657 75.7276 94.7158 75.7283 94.7158 75.5049C94.7158 75.2797 85.7958 39.9957 85.7134 39.8952C85.6799 39.8543 85.2869 39.8021 84.8189 39.7765C83.0453 39.6793 81.6252 39.4021 79.6913 38.7756C78.1603 38.2796 76.8844 37.7596 74.0699 36.4848C70.5146 34.8744 69.1623 34.3597 67.5968 34.0208C66.6099 33.8072 64.8173 33.8052 64.0887 34.0169C63.8269 34.093 63.6 34.1429 63.5845 34.1278C63.5354 34.08 64.4117 33.7096 64.8372 33.5983C65.4913 33.4273 66.5595 33.4 67.4265 33.5323C68.9308 33.7618 70.4593 34.3078 74.1721 35.942C79.5799 38.3221 82.2224 39.1158 85.525 39.3521L86.589 39.4282L87.455 42.683C87.9313 44.4731 89.9457 52.0864 91.9315 59.6014C93.9173 67.1164 95.8467 74.406 96.2191 75.8004C96.5915 77.1949 96.8962 78.3637 96.8962 78.3979C96.8962 78.4809 96.39 78.5139 92.1606 78.707C88.1522 78.89 86.1963 79.0065 83.8137 79.2042C74.9925 79.9362 67.2054 81.4998 58.7048 84.246C57.3556 84.6819 56.2211 85.0371 56.1837 85.0355C56.1462 85.0338 55.5859 84.5283 54.9386 83.9122Z" fill="#B82236"/>
<path d="M54.7575 77.3266C54.5562 76.7839 54.9325 75.236 55.368 74.5876C55.7531 74.0142 56.1144 73.1197 56.2384 72.4327C56.2678 72.2702 56.4974 71.7595 56.7486 71.2978C57.2554 70.3665 57.3517 69.3831 56.936 69.3831C56.7878 69.3831 56.6666 69.1471 56.6666 68.8585C56.6666 68.4047 56.8462 68.3339 57.9986 68.3339C58.9739 68.3339 59.4248 68.207 59.6827 67.8597C59.8763 67.5989 60.5998 67.0103 61.2904 66.5518C62.2593 65.9086 62.5137 65.5974 62.4041 65.1894C62.2559 64.638 62.9107 63.6556 64.6351 61.8421C65.1495 61.301 65.8764 60.2091 66.2504 59.4157C66.6243 58.6222 67.1141 57.6475 67.3388 57.2495C67.5635 56.8516 67.7227 56.3204 67.6924 56.0692C67.6084 55.371 68.0246 53.3891 68.2886 53.2303C68.6883 52.9898 68.5473 51.6305 67.9657 50.1172C67.6594 49.3202 67.4904 48.5395 67.5902 48.3823C67.69 48.2252 67.5088 47.8582 67.1875 47.5669C66.4155 46.8667 66.0976 45.995 66.0976 44.5786C66.0976 43.2582 65.5677 43.0304 64.484 43.8847C63.2429 44.863 63.8728 50.208 65.2078 50.0259C65.5227 49.9829 65.8589 50.0714 65.9549 50.2226C66.0591 50.3868 65.8519 50.4974 65.4398 50.4974C64.8362 50.4974 64.7503 50.6078 64.7503 51.3834C64.7503 51.8706 64.5629 52.4207 64.3338 52.6058C64.1048 52.7908 63.9822 53.1067 64.0615 53.3078C64.2026 53.6658 63.0057 56.2681 62.6999 56.2681C62.6147 56.2681 62.2542 56.0455 61.8988 55.7734C61.2253 55.2577 61.3453 54.9755 62.3925 54.6121C63.0683 54.3775 62.3764 50.1036 61.4889 49.0307C61.3586 48.8731 61.3318 48.6666 61.4293 48.5716C61.5268 48.4767 61.3136 48.39 60.9554 48.379C60.5973 48.3679 60.0617 48.2994 59.7653 48.2266C59.1266 48.0698 57.4634 47.9352 55.0498 47.8449C52.8632 47.763 50.4975 46.7682 51.0231 46.1517C51.2268 45.9128 51.4617 45.858 51.65 46.0054C52.0659 46.3313 54.0149 46.6209 56.2624 46.6908C57.2998 46.723 58.573 46.8323 59.0917 46.9337C59.6104 47.0351 60.2167 47.1451 60.439 47.1781C61.739 47.3717 62.6216 48.0397 62.918 49.0548C63.0865 49.6319 63.3407 50.222 63.4829 50.3663C63.9023 50.7919 63.4439 48.4414 62.9703 47.7377C62.7391 47.3943 62.5991 46.901 62.6591 46.6414C63.1384 44.5675 61.5271 43.7634 58.0547 44.3435C54.5548 44.9282 51.6012 44.9706 51.2568 44.4411C50.7823 43.7114 50.9737 43.3509 51.7748 43.4653C52.6674 43.5929 52.741 42.6584 51.9329 41.4579C51.4246 40.7027 51.6458 40.1797 52.3779 40.4059C52.6618 40.4936 52.9037 40.4689 52.9154 40.351C53.1108 38.3765 53.0401 37.7868 52.5509 37.3106C51.9971 36.7714 52.406 36.1207 53.0198 36.5646C53.5531 36.9501 55.616 37.4093 56.118 37.2542C56.396 37.1683 56.9056 37.0451 57.2504 36.9805C57.5952 36.9159 57.9181 36.7438 57.968 36.5981C58.1573 36.0454 58.5698 36.3742 59.1219 37.5176C60.1017 39.5467 62.8497 40.6268 63.0781 39.0726C63.1971 38.2629 61.8119 36.8783 61.4729 37.468C61.005 38.2818 60.4161 37.9926 60.486 36.9833C60.6214 35.026 58.5698 34.1283 54.9151 34.5459C54.0259 34.6475 52.8456 34.615 52.2924 34.4738C50.5121 34.0192 49.2331 35.4442 49.5759 37.5003C49.6599 38.0041 49.5831 38.9786 49.4053 39.666C49.2275 40.3534 49.0216 42.0389 48.9478 43.4115C48.8739 44.7841 48.61 46.6154 48.3613 47.481C48.0102 48.7033 47.9057 50.2263 47.8938 54.3008C47.8853 57.1861 47.7918 60.327 47.6859 61.2806C47.5309 62.6768 47.5732 63.0788 47.9034 63.3455C48.405 63.7507 48.4417 64.3994 47.9631 64.3994C47.7704 64.3994 47.4628 64.2534 47.2794 64.0749C46.9168 63.722 45.0231 65.4035 44.9056 66.1827C44.7214 67.4046 40.4848 72.4199 39.8403 72.1791C39.3018 71.978 39.5097 71.5314 40.8917 69.9212C41.4168 69.3094 41.8464 68.7061 41.8464 68.5805C41.8464 68.4549 42.1877 67.9645 42.6048 67.4906C43.0219 67.0167 43.7347 66.0309 44.1887 65.2999C44.6427 64.5689 45.3119 63.6581 45.6758 63.2759C46.0396 62.8937 46.3545 62.4295 46.3754 62.2443C46.8248 58.27 46.9161 57.0984 46.8102 56.6615C46.5888 55.7471 46.4849 49.0662 46.6879 48.7925C46.9708 48.411 47.5132 46.2578 47.4807 45.6449C47.4207 44.5101 47.7309 41.3928 48.0028 40.3989C48.1606 39.8218 48.2571 38.6414 48.2171 37.7758C48.0636 34.451 49.1256 33.4098 52.7392 33.3421C55.8187 33.2844 55.8575 33.2547 55.8834 30.9405C55.8946 29.9392 56.1314 27.7625 56.4096 26.1034C56.6878 24.4444 56.9419 22.4632 56.9743 21.7007C57.0728 19.382 58.492 18.4803 59.8417 19.8789C60.6278 20.6935 61.2628 23.4335 60.9629 24.7169C60.8352 25.2631 60.7114 27.4805 60.6878 29.6445C60.6611 32.0898 60.5366 33.6455 60.3588 33.7548C60.0617 33.9373 60.6953 34.8627 62.3038 36.5955C64.2995 38.7453 64.4076 40.0862 62.6079 40.3664C61.2491 40.5779 59.6014 39.9657 58.6893 38.9105C57.1941 37.1807 56.319 37.8897 56.2744 40.8671C56.236 43.4338 56.236 43.4338 56.9228 43.3075C57.3006 43.238 58.125 43.1054 58.7548 43.0128C59.9 42.8446 59.9 42.8446 59.9 41.6681C59.9 40.6864 60.0499 40.0103 60.4434 40.0892C60.8116 40.163 60.8323 40.9195 60.7936 41.771C60.747 42.7963 60.7994 42.8793 61.6693 43.1587C62.1782 43.3222 62.5946 43.5649 62.5946 43.698C62.5946 44.1855 63.3218 43.922 63.6565 43.3131C64.4097 41.9432 67.2456 41.719 66.8604 43.0598C66.7492 43.4471 67.1887 46.0634 67.4418 46.5202C69.9009 50.9601 70.1181 53.0018 68.4929 56.3992C68.3549 56.6878 68.1966 57.1604 68.1411 57.4495C67.8038 59.2069 67.3189 60.3081 66.5523 61.0569C66.0734 61.5248 65.3995 62.3533 65.0548 62.8981C64.7101 63.443 64.2804 64.0331 64.1 64.2096C63.9196 64.3861 63.441 65.081 63.0366 65.7538C62.2181 67.1155 60.2886 68.9654 59.401 69.2397C59.0783 69.3394 58.7454 69.7286 58.6466 70.1219C58.5494 70.5091 58.3975 70.8848 58.3092 70.9569C58.1503 71.0866 56.957 73.729 56.8284 74.2357C56.7918 74.38 56.5585 74.9551 56.31 75.5137C56.0615 76.0723 55.8962 77.9513 55.8962 78.0625C55.8962 78.4214 54.8815 77.6608 54.7575 77.3266ZM55.0957 42.694C55.2827 38.6897 55.2649 38.4316 54.8018 38.4316C54.4456 38.4316 54.2756 38.8666 54.0073 40.4644C53.8196 41.5825 53.6112 42.7628 53.5444 43.0874C53.4398 43.5953 53.5363 43.6776 54.2363 43.6776C54.9885 43.6776 55.0533 43.6035 55.0957 42.694ZM59.7653 27.2801C59.7653 20.54 59.6882 20.1128 58.483 20.172C57.9632 20.1975 57.8791 20.3477 57.8791 21.2509C57.8791 22.1046 57.967 22.2857 58.3507 22.223C58.9911 22.1183 58.9538 22.8038 58.2701 23.704C57.9664 24.1038 57.6674 24.8196 57.6057 25.2945C57.5439 25.7695 57.4237 26.3719 57.3385 26.6333C57.2533 26.8947 57.3156 27.188 57.477 27.2851C57.6641 27.3976 57.6785 27.5721 57.5168 27.7662C57.3773 27.9337 57.1796 29.1304 57.0776 30.4255C56.9755 31.7206 56.8342 32.8715 56.7634 32.9829C56.6926 33.0944 57.1198 33.1856 57.7126 33.1856C58.3054 33.1856 58.8529 33.2839 58.9292 33.4042C59.6198 34.4918 59.7653 33.4257 59.7653 27.2801ZM53.7025 66.8913C53.7025 66.6705 53.943 66.4978 54.2504 66.4978C54.5517 66.4978 55.3857 66.208 56.1038 65.8538C57.4869 65.1716 57.7635 65.1898 57.5593 65.9496C57.2858 66.9679 53.7025 67.8428 53.7025 66.8913ZM56.549 60.7928C56.6381 60.396 56.8099 59.7638 56.9307 59.3879C57.2357 58.4387 56.6443 55.4812 56.1495 55.4812C55.3424 55.4812 54.7374 53.8317 55.2226 52.9545C55.7208 52.054 55.7208 52.054 54.8464 51.3879C54.3655 51.0215 53.972 50.5495 53.972 50.3391C53.972 49.6949 54.7256 49.6305 55.4824 50.21C56.3169 50.8491 59.1665 51.0046 59.5473 50.4319C59.6817 50.2297 59.8481 50.657 59.9814 51.5467C60.2899 53.6069 60.2802 54.4132 59.9317 55.6856C59.3718 57.7303 60.0815 58.7372 61.234 57.5331C61.9618 56.7726 62.1594 57.0344 61.6329 58.0616C60.287 60.688 58.3129 57.6416 59.2261 54.3475C59.5732 53.0956 58.3878 51.5851 57.3597 51.9691C57.1267 52.0562 56.936 52.2918 56.936 52.4928C56.936 52.6937 56.8277 52.8582 56.6954 52.8582C56.0653 52.8582 56.1867 53.7611 56.9355 54.6455C57.3804 55.1709 57.7444 55.8014 57.7444 56.0468C57.7444 56.2922 57.8959 56.6489 58.0812 56.8395C58.2665 57.0301 58.4397 57.5992 58.4661 58.1042C58.4925 58.6091 58.5992 59.4187 58.7031 59.9032C58.879 60.7236 58.8513 60.7715 58.2993 60.601C57.8374 60.4583 57.674 60.5389 57.5593 60.966C57.3194 61.8589 56.3468 61.6922 56.549 60.7928Z" fill="#B82236"/>
<path d="M58.9101 33.3187C58.7612 33.2251 58.2917 33.1472 57.8667 33.1458C57.361 33.144 57.0595 33.0553 56.9939 32.8889C56.9388 32.7491 57.0363 31.6226 57.2107 30.3856C57.385 29.1486 57.5146 27.7413 57.4986 27.2582C57.4583 26.0447 57.7753 24.788 58.3903 23.7235C59.0303 22.6156 59.0426 22.2908 58.4499 22.146C58.0287 22.0431 57.9943 21.9648 58.0439 21.2204C58.0928 20.4846 58.144 20.402 58.5821 20.3528C59.4764 20.2522 59.5359 20.604 59.6016 26.3799C59.6588 31.4087 59.5711 33.4976 59.3031 33.4917C59.2358 33.4903 59.0589 33.4124 58.9101 33.3187Z" fill="#F5D999"/>
<path d="M56.5196 43.3327C56.2903 43.2629 56.2511 42.9737 56.2696 41.4845C56.2786 40.7636 56.2872 40.4573 56.3062 40.1841C56.3967 38.881 56.6872 38.1471 57.1671 38.0095C57.2557 37.984 57.3995 37.9839 57.4993 38.0088C57.8381 38.0944 58.1871 38.3576 58.6593 38.8835C58.9569 39.2148 59.2099 39.4338 59.5419 39.6474C59.7891 39.8064 60.0338 39.9355 60.2814 40.0377C60.323 40.0549 60.36 40.0716 60.3636 40.0748C60.3671 40.0781 60.3536 40.0829 60.3335 40.0855C60.1736 40.1069 60.0447 40.3142 59.9753 40.6619C59.9223 40.9277 59.908 41.1115 59.8989 41.6473C59.8897 42.1871 59.8859 42.2879 59.8705 42.3946C59.8465 42.5615 59.8035 42.6653 59.7286 42.7371C59.6779 42.7857 59.6657 42.7941 59.5976 42.8268C59.4519 42.8966 59.3496 42.9169 58.4231 43.0597C57.7253 43.1672 57.343 43.229 56.9597 43.2961C56.6623 43.3481 56.5908 43.354 56.5196 43.3324V43.3327Z" fill="#F5D999"/>
<path d="M49.3891 116.58C45.7078 116.523 45.1999 116.495 44.953 116.338C44.7996 116.24 44.674 116.102 44.674 116.031C44.674 115.96 44.39 115.493 44.0426 114.993C43.193 113.77 43.1333 113.572 43.1333 111.977C43.1333 110.382 43.1927 110.184 44.0426 108.962C44.39 108.462 44.674 107.995 44.674 107.924C44.674 107.853 44.7952 107.717 44.9433 107.623C45.1829 107.47 45.9216 107.442 51.6568 107.369C58.1142 107.287 70.6992 107.394 71.0569 107.534C71.1616 107.575 71.3466 107.801 71.4682 108.035C71.5897 108.27 71.9003 108.752 72.1584 109.106C72.8837 110.102 72.9765 110.428 72.9765 111.977C72.9765 113.557 72.9084 113.78 72.048 115.009C71.7195 115.479 71.4507 115.93 71.4507 116.011C71.4507 116.093 71.3304 116.237 71.1832 116.331C70.729 116.62 59.9113 116.744 49.3891 116.58ZM70.2427 115.573C70.5073 115.509 70.7071 115.302 71.2187 114.562C71.9894 113.447 72.1298 112.972 72.066 111.693C72.0132 110.633 71.9063 110.343 71.2145 109.381C70.9646 109.033 70.7092 108.664 70.6469 108.561C70.5423 108.387 70.229 108.366 66.5029 108.28C62.2646 108.181 46.5968 108.265 45.9354 108.39C45.6026 108.452 45.4701 108.575 44.9696 109.289C44.1772 110.419 44.1503 110.477 44.0428 111.31C43.9279 112.201 44.0611 113.236 44.3587 113.765C44.5615 114.126 45.4363 115.39 45.5811 115.531C45.7212 115.668 50.9338 115.724 60.2408 115.689C65.5589 115.67 70.0597 115.617 70.2427 115.573ZM38.458 110.269C38.3411 110.218 37.5521 109.914 36.7048 109.592C25.7476 105.435 16.1703 97.8697 9.55322 88.1448C4.27521 80.3879 1.2015 71.9032 0.189189 62.2961C-0.0340879 60.1768 -0.0678392 54.3305 0.131409 52.3185C0.844085 45.1262 2.45791 39.2212 5.38743 33.087C11.0848 21.1573 21.2592 11.2662 33.517 5.7407C39.8003 2.9084 45.8632 1.34325 53.2277 0.6523C55.2954 0.458348 61.3035 0.491276 63.4814 0.708609C70.9101 1.44977 77.0516 3.13286 83.5108 6.19771C101.062 14.5259 113.092 30.7529 115.643 49.5436C116.324 54.5534 116.288 60.2154 115.545 65.2254C113.098 81.7194 103.164 96.3538 88.3986 105.219C84.7152 107.431 77.753 110.535 76.9285 110.334C76.519 110.234 75.9028 109.652 75.6581 109.134C75.463 108.722 75.434 108.428 75.4018 106.549C75.3816 105.383 75.3337 104.397 75.2941 104.357C75.255 104.318 75.0315 104.326 74.7977 104.376C73.2653 104.706 67.3772 105.4 63.7567 105.677C60.643 105.916 53.8752 105.838 50.6774 105.527C47.7067 105.238 44.437 104.835 42.5564 104.526C41.7133 104.388 40.9655 104.274 40.895 104.274C40.8003 104.274 40.7533 104.838 40.7165 106.42C40.6637 108.676 40.6018 109.017 40.1311 109.634C39.6505 110.263 39.0083 110.507 38.458 110.269ZM39.5747 109.571C40.1133 109.047 40.3084 108.425 40.0804 107.96C39.7473 107.28 37.9437 106.593 33.9377 105.62C32.7421 105.33 31.5662 105.021 31.3247 104.933C30.4022 104.596 29.6997 103.748 29.6942 102.963C29.6942 102.781 29.8106 102.269 29.9557 101.825C30.2615 100.889 31.1091 96.4539 31.2858 94.8655C31.3524 94.2684 31.4541 93.5071 31.5124 93.1738C31.6125 92.6001 31.605 92.559 31.3721 92.401C30.6721 91.9258 28.4303 90.1061 27.3685 89.1513C23.5145 85.6857 20.0887 81.2382 17.706 76.6072C15.4684 72.2583 14.0305 67.6567 13.3156 62.5564C13.0363 60.5628 12.9236 55.6322 13.1082 53.4754C14.5144 37.0428 25.0808 22.8864 40.7031 16.5051C44.9276 14.7795 49.6697 13.6641 54.4167 13.2795C56.6331 13.0999 61.7003 13.2097 63.7491 13.4814C75.7134 15.0693 85.9053 20.6724 93.4003 29.7825C96.6257 33.7031 99.1482 38.2618 100.836 43.2197C101.857 46.222 102.455 48.8242 102.865 52.06C103.138 54.2094 103.14 59.7624 102.865 61.8815C101.75 70.5928 98.6201 77.8693 93.0803 84.6294C91.6392 86.3879 88.1214 89.791 86.2397 91.2468C85.2624 92.0029 84.7417 92.472 84.7777 92.5634C84.8594 92.7704 85.0219 93.8687 85.1032 94.762C85.2101 95.9362 86.1987 101.119 86.421 101.67C86.8694 102.783 86.7872 103.577 86.1584 104.208C85.6541 104.713 85.0679 104.94 82.904 105.467C78.3431 106.578 76.5804 107.236 76.2443 107.954C75.9525 108.577 76.2139 109.433 76.8124 109.815C77.078 109.984 77.1233 109.977 78.1723 109.6C91.7137 104.735 103.128 94.7432 109.651 82.0446C115.394 70.8637 117.117 58.2374 114.581 45.908C112.689 36.7047 108.489 28.2554 102.093 20.783C100.654 19.1017 97.2154 15.7421 95.4615 14.304C80.9172 2.3769 62.0487 -1.86582 43.6615 2.65649C39.8616 3.59111 36.4143 4.84361 32.6109 6.67123C26.5458 9.58572 22.1264 12.6734 17.3044 17.3656C13.5656 21.0037 11.0205 24.1742 8.33649 28.5376C7.31108 30.2046 5.19702 34.3904 4.44599 36.2406C0.692913 45.4868 -0.479368 55.411 1.00765 65.3462C2.18786 73.2309 5.2834 81.0849 9.8711 87.8346C14.2842 94.3274 19.6037 99.5035 26.2885 103.809C30.0384 106.225 33.6562 108.037 37.6581 109.505C38.3301 109.751 38.9454 109.955 39.0253 109.957C39.1052 109.957 39.3511 109.786 39.5717 109.571H39.5747ZM65.6597 105.114C72.3382 104.444 75.809 103.884 78.2525 103.082C80.5073 102.343 83.3229 101.701 85.0836 101.525C85.5873 101.475 85.7955 101.412 85.7955 101.31C85.7955 101.23 85.5786 100.018 85.3138 98.6156C85.0489 97.2133 84.7613 95.4353 84.6744 94.6644C84.5874 93.8936 84.4464 93.0259 84.3609 92.7363C83.9383 91.3052 83.0149 91.0687 80.1619 91.6607C76.4375 92.4334 70.2679 93.0818 63.0034 93.464C61.367 93.5501 59.6456 93.6416 59.1781 93.6675C58.256 93.7182 55.5447 93.6104 51.5277 93.3625C44.9075 92.954 40.2449 92.4396 36.5332 91.7083C33.8552 91.1808 33.0023 91.2383 32.4285 91.9853C32.0554 92.4712 31.9515 92.857 31.764 94.4519C31.6023 95.8274 31.2954 97.6536 30.8172 100.087C30.6831 100.769 30.5931 101.363 30.617 101.405C30.6409 101.448 30.7904 101.483 30.9492 101.483C32.0598 101.483 36.1266 102.392 38.2986 103.126C40.2358 103.781 43.6853 104.369 48.6927 104.898C53.0353 105.357 53.9104 105.398 58.7531 105.367C62.6331 105.344 63.8079 105.3 65.6597 105.114ZM62.1001 93.1051C69.8965 92.7142 76.2754 92.0444 80.3363 91.19C81.7199 90.8989 82.9601 90.861 83.529 91.0923C83.7397 91.178 84.0675 91.4084 84.2575 91.6044C84.6029 91.9607 84.603 91.9607 86.0227 90.8544C87.8571 89.425 90.2065 87.1934 92.1592 85.0258C93.7092 83.3053 94.2561 82.6356 94.5096 82.1479C94.5835 82.0057 94.8294 81.6336 95.056 81.3208C96.9463 78.7117 98.0739 76.6376 99.6655 72.8424C100.417 71.0509 101.468 67.4508 101.94 65.0542C102.496 62.2273 102.628 60.688 102.627 57.0229C102.627 54.3816 102.584 53.2278 102.446 52.1634C102.204 50.293 101.785 48.078 101.405 46.6584C101.234 46.0182 101.048 45.3083 100.994 45.0809C100.468 42.8979 98.6482 38.6339 97.0663 35.8787C91.0392 25.382 80.7281 17.7031 68.8275 14.8489C65.1628 13.9699 61.9511 13.5965 58.0718 13.5982C54.4549 13.5982 52.0329 13.839 48.7208 14.5221C38.0168 16.73 28.4067 22.8186 21.8969 31.5165C19.2493 35.0541 16.7852 39.7832 15.5028 43.7884C14.0367 48.3672 13.4378 52.2044 13.4356 57.0321C13.4356 60.7134 13.7964 63.7516 14.6537 67.2453C15.1194 69.1429 16.2044 72.4071 16.772 73.6178C16.852 73.7884 16.9498 74.0327 16.9895 74.1606C17.0293 74.2886 17.101 74.3933 17.1492 74.3933C17.197 74.3933 17.2685 74.5212 17.3074 74.6776C17.4057 75.0723 18.309 76.9634 18.5787 77.3387C18.7007 77.5086 18.8767 77.8114 18.9697 78.0116C19.3553 78.8409 21.8169 82.5556 22.6696 83.5948C24.9722 86.4011 28.3578 89.6355 31.1076 91.6556C31.7223 92.1073 31.7223 92.1072 32.0543 91.7155C32.7632 90.8786 33.909 90.7321 36.1153 91.1962C39.6883 91.9479 44.8459 92.532 51.6339 92.9537C57.6029 93.3245 57.6984 93.3257 62.1001 93.1051Z" fill="black"/>
<path d="M53.1985 114.431H50.4059C50.4059 114.315 50.4132 114.212 50.4277 114.124C50.4421 114.031 50.4709 113.915 50.5137 113.776C50.5615 113.632 50.645 113.483 50.7643 113.33C50.8884 113.172 51.0435 113.016 51.2297 112.863L51.917 112.292C52.3753 111.915 52.6044 111.465 52.6044 110.94C52.6044 110.578 52.5137 110.299 52.3323 110.104C52.1509 109.904 51.8932 109.804 51.5591 109.804C51.3252 109.804 51.1127 109.881 50.9217 110.034C50.7356 110.183 50.6425 110.35 50.6425 110.536C50.6425 110.736 50.7403 110.852 50.936 110.884C51.0888 110.907 51.201 110.958 51.2726 111.038C51.349 111.112 51.3871 111.203 51.3871 111.309C51.3871 111.398 51.3538 111.472 51.2869 111.532C51.2249 111.593 51.1367 111.623 51.0221 111.623C50.8264 111.623 50.664 111.549 50.5351 111.4C50.4062 111.247 50.3418 111.047 50.3418 110.801C50.3418 110.443 50.4754 110.146 50.7427 109.909C51.0148 109.672 51.3537 109.554 51.7594 109.554C52.2272 109.554 52.6115 109.679 52.9122 109.93C53.2129 110.176 53.3633 110.513 53.3633 110.94C53.3633 111.093 53.3299 111.242 53.2631 111.386C53.1963 111.53 53.0983 111.667 52.9695 111.797C52.8406 111.927 52.726 112.034 52.6258 112.117C52.5256 112.196 52.3992 112.289 52.2464 112.396L51.5447 112.926C51.1295 113.209 50.9217 113.465 50.9217 113.692C50.9217 113.804 50.9958 113.859 51.1438 113.859H52.497C52.6879 113.859 52.8215 113.82 52.8979 113.741C52.979 113.657 53.034 113.541 53.0626 113.392L53.1414 112.981H53.299L53.1985 114.431Z" stroke="#2F68D5"/>
<path d="M56.042 114.319C56.2091 114.319 56.3545 114.268 56.4786 114.166C56.6075 114.059 56.703 113.934 56.7651 113.79C56.8319 113.641 56.8845 113.455 56.9227 113.232C56.9608 113.009 56.9846 112.812 56.9942 112.64C57.0039 112.468 57.0087 112.273 57.0087 112.055C57.0087 111.832 57.0039 111.635 56.9942 111.463C56.9846 111.291 56.9608 111.093 56.9227 110.87C56.8846 110.647 56.832 110.464 56.7651 110.32C56.703 110.171 56.6075 110.046 56.4786 109.944C56.3545 109.837 56.2091 109.784 56.042 109.784C55.875 109.784 55.7269 109.837 55.598 109.944C55.4739 110.046 55.3786 110.171 55.3117 110.32C55.2496 110.464 55.1995 110.647 55.1614 110.87C55.1233 111.093 55.0993 111.291 55.0896 111.463C55.08 111.635 55.0751 111.832 55.0751 112.055C55.0751 112.273 55.08 112.468 55.0896 112.64C55.0993 112.812 55.1233 113.009 55.1614 113.232C55.1995 113.455 55.2496 113.641 55.3117 113.79C55.3786 113.934 55.4739 114.059 55.598 114.166C55.7269 114.268 55.875 114.319 56.042 114.319ZM56.042 114.542C55.7079 114.542 55.4046 114.421 55.1326 114.18C54.8653 113.934 54.6625 113.622 54.524 113.246C54.3856 112.87 54.3164 112.471 54.3164 112.048C54.3164 111.625 54.3856 111.226 54.524 110.85C54.6625 110.473 54.8653 110.164 55.1326 109.923C55.4046 109.677 55.7079 109.554 56.042 109.554C56.3762 109.554 56.6768 109.677 56.9441 109.923C57.2161 110.164 57.4214 110.473 57.5598 110.85C57.6983 111.226 57.7675 111.625 57.7675 112.048C57.7675 112.471 57.6983 112.87 57.5598 113.246C57.4214 113.622 57.2161 113.934 56.9441 114.18C56.6768 114.421 56.3762 114.542 56.042 114.542Z" stroke="#2F68D5"/>
<path d="M58.9785 114.431V114.208H59.6659C59.7995 114.208 59.8662 114.147 59.8662 114.027V110.606H58.9785V110.355H59.3722C59.6299 110.355 59.8377 110.287 59.9952 110.153C60.1575 110.018 60.2578 109.856 60.296 109.665H60.525V114.027C60.525 114.147 60.5919 114.208 60.7255 114.208H61.4129V114.431H58.9785Z" stroke="#2F68D5"/>
<path d="M63.0169 109.665H65.7663C65.7663 109.907 65.728 110.183 65.6516 110.494C65.58 110.805 65.4559 111.089 65.2793 111.344L64.8713 111.943C64.6756 112.31 64.5777 112.612 64.5777 112.849C64.5777 113.049 64.592 113.223 64.6204 113.372L64.6632 113.615C64.7013 113.801 64.7203 113.964 64.7203 114.103C64.7203 114.396 64.5794 114.542 64.2978 114.542C64.1259 114.542 63.9875 114.482 63.8825 114.361C63.7823 114.24 63.7322 114.078 63.7322 113.873C63.7322 113.729 63.7609 113.567 63.8182 113.386C63.8803 113.204 63.9375 113.065 63.99 112.968C64.0425 112.865 64.1332 112.705 64.2621 112.487C64.391 112.268 64.4649 112.143 64.484 112.111L65.0569 111.309C65.3003 110.97 65.4219 110.673 65.4219 110.418C65.4219 110.297 65.348 110.236 65.2 110.236H63.7179C63.5269 110.236 63.391 110.278 63.3099 110.362C63.2335 110.441 63.1809 110.555 63.1523 110.703L63.0735 111.114H62.916L63.0169 109.665Z" stroke="#2F68D5"/>
<path d="M42.3155 95.001L42.2851 95.2918C42.7211 95.369 42.7789 95.6684 42.741 96.0362L42.326 100.056C42.2883 100.424 42.17 100.706 41.727 100.698L41.6973 100.989L46.8747 101.495C47.156 101.522 47.6958 101.627 47.6286 102.277C47.604 102.516 47.3901 102.867 46.8978 102.819C46.2561 102.756 45.5084 102.26 44.4712 101.899C44.1372 101.78 43.7654 101.683 43.4665 101.654C42.5963 101.569 42.0643 101.906 42.0166 102.368C41.9854 102.667 42.1368 102.837 42.3302 102.856C42.506 102.873 42.6511 102.758 42.6687 102.587C42.6847 102.433 42.5854 102.276 42.392 102.257C42.3747 102.257 42.3478 102.25 42.3297 102.257C42.4098 101.997 42.7702 102.033 42.8933 102.045C43.658 102.119 44.2275 102.538 45.0976 102.882C45.1316 102.894 45.8315 103.17 46.4117 103.227C47.4753 103.331 47.8835 102.731 47.9285 102.295C47.9741 101.85 47.7689 101.606 47.5774 101.397C47.2988 101.084 47.3517 100.917 47.3712 100.729L47.8048 96.5287C47.8439 96.1524 47.9774 95.889 48.3949 95.8866L48.4253 95.5958L46.632 95.4205L46.6017 95.7113C47.0078 95.8201 47.0877 96.0785 47.0489 96.4549L46.5665 101.125L43.0152 100.778L43.4975 96.1077C43.5184 95.9024 43.5874 95.4944 44.0876 95.4656L44.1173 95.1746L42.3155 95.001Z" stroke="#2F68D5" stroke-width="2.07548"/>
<path d="M52.9731 95.8722L51.1736 95.7773L51.1577 96.0693C51.5792 96.1256 51.6604 96.4143 51.6394 96.7919L51.415 100.826C51.394 101.204 51.2813 101.482 50.8559 101.494L50.8398 101.786L52.6395 101.881L52.6554 101.589C52.2339 101.533 52.1527 101.244 52.1737 100.866L52.2797 98.9608L55.8349 99.148L55.7289 101.054C55.7043 101.491 55.5602 101.699 55.1696 101.722L55.153 102.013L56.9615 102.109L56.9774 101.817C56.6088 101.763 56.4635 101.514 56.4869 101.094L56.7113 97.0591C56.725 96.8101 56.7916 96.4091 57.2792 96.3917L57.2958 96.0998L55.4873 96.0046L55.4714 96.2964C55.8572 96.3598 55.9777 96.5814 55.9533 97.0192L55.8534 98.8132L52.2983 98.626L52.3981 96.8319C52.4213 96.4113 52.5671 96.1779 52.9572 96.1639L52.9731 95.8722Z" stroke="#2F68D5" stroke-width="2.07548"/>
<path d="M59.5508 96.0814L59.5681 96.3732C59.9852 96.3929 60.1162 96.6608 60.1388 97.0385L60.3793 101.072C60.4017 101.45 60.3036 101.731 59.8916 101.797L59.9089 102.089L61.7169 101.987L61.6996 101.695C61.2825 101.675 61.1608 101.416 61.1377 101.029L61.1248 100.806L64.4721 97.431H64.4988L64.7017 100.83C64.7234 101.199 64.635 101.496 64.2138 101.555L64.2313 101.846L66.0393 101.744L66.0219 101.453C65.5779 101.426 65.4832 101.173 65.4602 100.787L65.2196 96.7532C65.1971 96.3756 65.2687 96.0959 65.6984 96.0287L65.6811 95.7368L63.873 95.8389L63.8904 96.1307C64.1831 96.1399 64.434 96.3411 64.4509 96.6243L64.4675 96.8989L61.1197 100.266H61.0928L60.8979 96.9957C60.8755 96.6181 60.9471 96.3385 61.3768 96.2712L61.3594 95.9793L59.5508 96.0814Z" stroke="#2F68D5" stroke-width="2.07548"/>
<path d="M68.3906 95.566L68.4217 95.8567C68.8393 95.8567 68.9825 96.1203 69.0223 96.4966L69.4474 100.516C69.4873 100.892 69.4017 101.177 68.9933 101.261L69.0244 101.552L70.826 101.372L70.7949 101.081C70.3774 101.081 70.2439 100.825 70.2032 100.44L70.18 100.218L73.3694 96.7008H73.3956L73.7537 100.087C73.7928 100.455 73.7174 100.756 73.2996 100.833L73.3309 101.123L75.1323 100.943L75.1019 100.652C74.6571 100.645 74.5508 100.396 74.5102 100.012L74.085 95.9924C74.0452 95.6161 74.1039 95.3337 74.5303 95.2478L74.4992 94.957L72.6976 95.1374L72.7289 95.4281C73.0216 95.4281 73.2814 95.6148 73.3113 95.897L73.3402 96.1707L70.1498 99.679H70.1238L69.7793 96.421C69.7395 96.0448 69.7981 95.7623 70.2246 95.6763L70.1933 95.3857L68.3906 95.566Z" stroke="#2F68D5" stroke-width="2.07548"/>
<path d="M18.1481 87.4052C18.6991 87.0031 19.158 86.601 19.5246 86.1989C19.8911 85.7968 20.1494 85.4438 20.2994 85.1398C20.4496 84.8358 20.5369 84.5701 20.5615 84.3427C20.5785 84.1057 20.5391 83.925 20.4435 83.8006C19.9564 83.1686 18.6453 83.6317 16.5101 85.1898C14.3747 86.7479 13.5506 87.8429 14.0376 88.4749C14.2073 88.6951 14.5036 88.8004 14.9267 88.7909C15.3424 88.7719 15.8407 88.6403 16.4212 88.396C17.0018 88.1519 17.5774 87.8217 18.1481 87.4052ZM26.7824 85.3234L26.1627 84.5191C26.0963 84.4329 26.0323 84.3898 25.9708 84.3898C25.9118 84.3733 25.8379 84.3974 25.7493 84.4619L16.5685 91.1611C16.48 91.2257 16.4357 91.2879 16.4357 91.3478C16.4182 91.4052 16.443 91.477 16.5099 91.5632L17.1296 92.3675L16.7754 92.626L14.6946 89.9258L15.5506 89.3011L15.4841 89.215C15.1053 89.282 14.7238 89.2759 14.3401 89.1968C13.9563 89.1178 13.6465 88.925 13.4104 88.6186C13.0267 88.1208 12.8571 87.5414 12.9014 86.8808C12.9458 86.2201 13.1673 85.5799 13.5657 84.96C13.9643 84.34 14.4735 83.804 15.0934 83.3517C15.7133 82.8993 16.3812 82.569 17.0971 82.3608C17.8129 82.1526 18.4992 82.1156 19.156 82.2496C19.8127 82.3838 20.333 82.6998 20.7167 83.1977C20.9528 83.5041 21.0697 83.8452 21.0672 84.221C21.0622 84.5968 20.9576 84.9797 20.7534 85.3699L20.8493 85.4347L24.4655 82.7959C24.5541 82.7313 24.6021 82.6739 24.6095 82.6236C24.6195 82.5566 24.5913 82.48 24.5247 82.3939L23.9048 81.5894L24.259 81.3311L27.1368 85.0653L26.7824 85.3234Z" fill="#2C7BE5"/>
<path d="M10.511 83.216L10.1099 83.3982L8.19938 79.4121L8.60052 79.23L8.82677 79.7018C8.87367 79.7994 8.95689 79.8739 9.07641 79.9253C9.19083 79.9656 9.31493 79.9554 9.44867 79.8947C9.57129 79.8391 9.70914 79.7302 9.86224 79.5683L13.1889 76.0184L9.0203 76.6225C8.67177 76.6883 8.40838 76.7616 8.23008 76.8425C8.06285 76.9184 7.93862 77.0276 7.85763 77.17C7.76546 77.3175 7.75859 77.4726 7.83679 77.6353L8.03947 78.0582L7.63814 78.2403L6.35156 75.5559L6.75289 75.3738L6.92431 75.7317C7.01788 75.9269 7.19816 76.0763 7.46489 76.1797C7.72639 76.2723 8.0477 76.2915 8.42891 76.2373L18.0578 74.8784C19.5937 74.6567 20.5514 74.9418 20.9308 75.7336C21.144 76.1783 21.1764 76.5995 21.0277 76.9971C20.879 77.3947 20.5761 77.6972 20.1191 77.9046C19.7512 78.0715 19.3733 78.1043 18.9854 78.003C18.5976 77.9017 18.3207 77.6776 18.1543 77.3305C18.0295 77.0701 18.0061 76.8232 18.0839 76.5897C18.168 76.3403 18.327 76.1625 18.5611 76.0562C18.8398 75.9298 19.1232 75.9266 19.4114 76.0467C19.618 76.1379 19.7993 76.1481 19.9553 76.0773C20.0556 76.0317 20.1292 75.9587 20.1761 75.8583C20.2341 75.7528 20.2341 75.6404 20.1761 75.521C20.1137 75.3909 19.9784 75.307 19.7704 75.2693C19.5571 75.2208 19.3651 75.2023 19.1941 75.2139C19.0181 75.2139 18.803 75.2324 18.5488 75.2693L16.4523 75.5671L10.8793 81.5232C10.5954 81.8369 10.4123 82.0917 10.3297 82.2876C10.242 82.4727 10.2632 82.7009 10.3933 82.9721L10.511 83.216Z" fill="#2C7BE5"/>
<path d="M9.93992 72.3898C9.11691 72.5915 8.33239 72.6233 7.58643 72.4852C6.84042 72.3471 6.19115 72.0434 5.63847 71.5741C5.08574 71.1048 4.71766 70.5161 4.53446 69.8082C4.42637 69.3904 4.40043 68.9956 4.45643 68.6239C4.51247 68.2523 4.63565 67.9444 4.82613 67.7003C5.01362 67.4446 5.23691 67.2294 5.49611 67.0548C5.74343 66.8831 6.01031 66.7622 6.29656 66.6921C6.72593 66.5869 7.13455 66.6224 7.52265 66.7989C7.89882 66.9782 8.13349 67.2478 8.22661 67.6075C8.29568 67.8745 8.2752 68.114 8.16521 68.3262C8.04324 68.5411 7.84522 68.6822 7.5709 68.7495C7.23694 68.8313 6.87269 68.723 6.4784 68.4247C6.1678 68.2046 5.88729 68.1253 5.63683 68.1866C5.38636 68.248 5.1823 68.3906 5.0246 68.6143C4.85493 68.841 4.82278 69.1575 4.92793 69.5637C5.20125 70.6198 6.67958 70.8191 9.36315 70.1615C9.79252 70.0563 10.1147 69.9774 10.3294 69.9248C10.5291 69.8635 10.769 69.7862 11.0492 69.6928C11.3264 69.5878 11.5708 69.4786 11.7824 69.365C12.1967 69.1525 12.4962 68.8632 12.6805 68.4971C12.8648 68.131 12.9073 67.7565 12.8082 67.3735C12.7331 67.0834 12.5864 66.8354 12.3683 66.6297C12.1472 66.4124 11.8919 66.259 11.6024 66.1695C11.3099 66.0684 11.001 66.0021 10.6759 65.9707C10.3506 65.9391 10.0299 65.9499 9.71386 66.0028L9.59671 65.5501C9.88895 65.503 10.1812 65.4807 10.4736 65.4831C10.7659 65.4831 11.0688 65.5262 11.3822 65.6123C11.6956 65.6959 11.985 65.8101 12.2508 65.9548C12.5166 66.0995 12.7557 66.3124 12.968 66.5936C13.1802 66.8748 13.336 67.2069 13.4351 67.5899C13.7174 68.6809 13.5193 69.6797 12.8408 70.5865C12.1592 71.4817 11.1923 72.083 9.93992 72.3898Z" fill="#2C7BE5"/>
<path d="M7.87088 63.3796C7.02356 63.4257 6.2471 63.3122 5.54151 63.039C4.83592 62.7658 4.2575 62.3479 3.80628 61.7851C3.3551 61.2223 3.10864 60.5765 3.06668 59.8475C3.04172 59.4174 3.09295 59.025 3.22055 58.6704C3.34801 58.3159 3.5291 58.0363 3.76369 57.8318C3.99759 57.6152 4.2588 57.4451 4.54734 57.3216C4.8236 57.1986 5.10917 57.1291 5.4039 57.113C5.84595 57.0888 6.24031 57.1991 6.58704 57.4442C6.92145 57.6896 7.09919 57.9976 7.1205 58.3681C7.13647 58.6429 7.06984 58.8743 6.92038 59.0622C6.75874 59.2509 6.5367 59.3528 6.25425 59.3682C5.91041 59.3871 5.57392 59.2137 5.24491 58.8479C4.98281 58.5744 4.72282 58.4447 4.46492 58.4588C4.20706 58.4729 3.97897 58.5752 3.78051 58.7658C3.56976 58.9571 3.47643 59.2618 3.50053 59.68C3.56311 60.7675 4.97591 61.2359 7.73893 61.0853C8.18103 61.0611 8.51245 61.0431 8.73347 61.0315C8.94157 61.0081 9.19235 60.9765 9.48568 60.9365C9.77837 60.8846 10.0397 60.8224 10.2695 60.7499C10.7177 60.6176 11.0678 60.3888 11.3202 60.0634C11.5724 59.738 11.6873 59.3781 11.6646 58.9837C11.6477 58.685 11.552 58.4145 11.3777 58.1723C11.203 57.9181 10.9821 57.7204 10.7152 57.5791C10.4478 57.4259 10.1574 57.3039 9.84424 57.2131C9.53105 57.1223 9.21406 57.0736 8.89338 57.0671L8.86652 56.6011C9.16264 56.6088 9.45389 56.6409 9.74044 56.6973C10.027 56.7536 10.3161 56.8516 10.6074 56.9916C10.8988 57.1315 11.1609 57.2971 11.3936 57.4883C11.6264 57.6794 11.8195 57.9324 11.9731 58.2477C12.1267 58.563 12.215 58.9178 12.2378 59.3121C12.3024 60.4354 11.9132 61.3796 11.0703 62.1448C10.2267 62.8979 9.16029 63.3094 7.87088 63.3796Z" fill="#2C7BE5"/>
<path d="M11.8243 54.8564L11.3857 54.7989L11.4797 54.1229C11.4946 54.0161 11.4862 53.9426 11.4543 53.9022C11.4123 53.8483 11.3365 53.8141 11.2266 53.7997L4.02317 52.851C3.91348 52.8365 3.83717 52.8505 3.794 52.8933C3.7403 52.9224 3.70598 52.9904 3.69111 53.0972L3.59699 53.7732L3.1582 53.7156L3.69769 49.8373L4.13648 49.8949L4.05735 50.4641C4.04238 50.5708 4.05605 50.6511 4.09847 50.705C4.12991 50.7453 4.20044 50.7727 4.31028 50.7873L7.56455 51.2159L7.72062 50.0951C7.75506 49.846 7.6831 49.6494 7.50479 49.5052C7.32629 49.3608 7.07848 49.2678 6.76154 49.226L5.51845 49.0624C4.90903 48.9821 4.46119 48.7661 4.17504 48.4144C3.89049 48.0509 3.77866 47.6497 3.83969 47.2109C3.89907 46.7839 4.07415 46.4628 4.36474 46.2474C4.65533 46.032 5.01384 45.9525 5.44042 46.0087C5.76953 46.0519 6.03335 46.2074 6.23192 46.4752C6.43049 46.7429 6.51163 47.0071 6.47535 47.268C6.43892 47.529 6.32926 47.7379 6.14621 47.895C5.96301 48.052 5.74334 48.1137 5.48739 48.08C5.32894 48.0591 5.16668 47.9774 5.00035 47.8347C4.87948 47.7221 4.77629 47.6603 4.69095 47.649C4.58126 47.6345 4.51827 47.6865 4.5018 47.8053C4.47885 47.9713 4.55036 48.1257 4.71654 48.2683C4.88286 48.4111 5.16722 48.5088 5.56944 48.5618L6.8308 48.7279C7.12334 48.7663 7.35008 48.8324 7.51082 48.9262C7.67156 49.0198 7.80042 49.1636 7.89753 49.3576L7.98891 49.3692C8.16003 48.7637 8.44547 48.3182 8.8451 48.0327C9.24643 47.7353 9.81268 47.6348 10.544 47.7311L11.7324 47.8876C12.0615 47.9308 12.2442 47.822 12.2805 47.5612C12.3366 47.158 11.7795 46.8793 10.6094 46.7252L10.6737 46.2627C11.4782 46.3686 12.0834 46.5691 12.4892 46.864C12.895 47.159 13.0558 47.609 12.9717 48.2138C12.8908 48.795 12.6741 49.2375 12.3216 49.5413C11.969 49.8451 11.488 49.9569 10.8786 49.8766L9.4343 49.6864C9.08083 49.6397 8.79586 49.6807 8.57938 49.8093C8.36295 49.9378 8.23827 50.1206 8.20528 50.3579L8.07663 51.2829L11.5137 51.7356C11.6233 51.7502 11.7052 51.7429 11.7589 51.7137C11.8018 51.671 11.8308 51.5964 11.8459 51.4897L11.925 50.9204L12.3638 50.9779L11.8243 54.8564Z" fill="#2C7BE5"/>
<path d="M7.16547 40.452C7.71142 40.848 8.67252 41.2883 10.0488 41.7731C11.425 42.2579 12.453 42.5182 13.1329 42.5541C13.8128 42.5901 14.245 42.3604 14.4292 41.8651C14.6134 41.37 14.4326 40.9245 13.8866 40.5285C13.3406 40.1325 12.3795 39.6921 11.0033 39.2074C9.62709 38.7226 8.59908 38.4622 7.91915 38.4263C7.23921 38.3904 6.80708 38.6201 6.62288 39.1153C6.43869 39.6105 6.61953 40.056 7.16547 40.452ZM11.0864 44.2579C10.4717 44.2578 9.85793 44.1497 9.24502 43.9338C8.63205 43.7179 8.09504 43.4206 7.63423 43.0419C7.16185 42.6591 6.79935 42.245 6.54649 41.7996C6.2821 41.35 6.11738 40.8784 6.05251 40.3846C5.98768 39.8908 6.03909 39.4188 6.20657 38.9686C6.37405 38.5185 6.64501 38.1239 7.01964 37.785C7.39426 37.446 7.83109 37.1862 8.32997 37.0056C8.81723 36.8208 9.36821 36.7285 9.98297 36.7287C10.5861 36.7238 11.1942 36.8298 11.8072 37.0466C12.4201 37.2626 12.9628 37.5619 13.4352 37.9447C13.896 38.3234 14.2585 38.7375 14.5229 39.187C14.7758 39.6325 14.9347 40.1021 14.9995 40.5959C15.0644 41.0897 15.013 41.5617 14.8455 42.0118C14.678 42.462 14.4071 42.8565 14.0324 43.1955C13.6578 43.5345 13.2267 43.7963 12.7394 43.981C12.2406 44.1617 11.6896 44.254 11.0864 44.2579Z" fill="#2C7BE5"/>
<path d="M16.6853 37.0816L16.3032 36.8641L16.657 36.2752C16.7129 36.1822 16.7343 36.1111 16.7213 36.0621C16.7039 35.9965 16.6473 35.9367 16.5515 35.8823L10.2765 32.312C10.181 32.2576 10.1049 32.2421 10.0483 32.2654C9.98716 32.2722 9.92869 32.3221 9.87285 32.4151L9.51885 33.004L9.13672 32.7866L12.4891 27.2075L15.6985 28.9086L15.4377 29.3426C15.0518 29.1786 14.4924 29.0544 13.7594 28.9701C13.3221 28.9154 12.8848 28.9437 12.4473 29.0553C12.016 29.1565 11.7073 29.3621 11.5211 29.6721L11.251 30.1215C11.1951 30.2145 11.176 30.2938 11.1934 30.3592C11.2064 30.4084 11.2608 30.4601 11.3566 30.5145L17.6316 34.0847C17.7272 34.1391 17.8054 34.1629 17.8665 34.1561C17.9231 34.1328 17.9794 34.0747 18.0353 33.9818L18.3893 33.3929L18.7714 33.6104L16.6853 37.0816Z" fill="#2C7BE5"/>
<path d="M16.9262 23.5525C17.2871 24.1144 18.0183 24.8644 19.1196 25.8025C20.2208 26.7406 21.0814 27.3465 21.7015 27.6202C22.3216 27.8939 22.81 27.8326 23.1664 27.4364C23.5229 27.0402 23.5204 26.5611 23.159 25.9992C22.798 25.4373 22.0668 24.6874 20.9656 23.7493C19.8643 22.8112 19.0037 22.2053 18.3836 21.9316C17.7635 21.6579 17.2751 21.7191 16.9187 22.1154C16.5622 22.5116 16.5647 22.9906 16.9262 23.5525ZM19.1589 28.4843C18.5862 28.2669 18.0544 27.9493 17.564 27.5315C17.0735 27.1137 16.6844 26.6469 16.3964 26.1312C16.0991 25.6077 15.9158 25.0936 15.8465 24.5892C15.7679 24.0769 15.7907 23.5794 15.9146 23.0964C16.0385 22.6134 16.2624 22.1918 16.5864 21.8316C16.9105 21.4714 17.3104 21.1995 17.786 21.0161C18.2616 20.8327 18.7655 20.745 19.2978 20.7529C19.8207 20.7531 20.3686 20.8619 20.9412 21.0793C21.5047 21.2888 22.0316 21.6025 22.5221 22.0203C23.0126 22.4381 23.4063 22.9088 23.7036 23.4324C23.9915 23.9481 24.1749 24.4621 24.2535 24.9744C24.3228 25.4788 24.2955 25.9725 24.1716 26.4554C24.0477 26.9384 23.8236 27.36 23.4996 27.7202C23.1755 28.0805 22.7758 28.3522 22.3002 28.5356C21.8246 28.719 21.3253 28.8107 20.8024 28.8106C20.2701 28.8028 19.7223 28.6941 19.1589 28.4843Z" fill="#2C7BE5"/>
<path d="M29.5436 18.5243L29.9648 18.3013C30.2 18.7218 30.4432 19.0564 30.6942 19.3049C30.9453 19.5536 31.1734 19.6235 31.3786 19.5149C31.6163 19.389 31.6558 19.1841 31.497 18.9003L30.9239 17.8753C30.5712 17.2445 30.4609 16.6966 30.593 16.2316C30.7358 15.7608 31.0674 15.3399 31.5881 14.9689L31.544 14.89C31.3124 14.8764 31.123 14.8132 30.9758 14.7004C30.8395 14.5818 30.7008 14.3963 30.5597 14.144L29.9513 13.056C29.7573 12.7091 29.5621 12.4853 29.366 12.3848C29.1697 12.2843 28.996 12.2741 28.8448 12.3542C28.7367 12.4114 28.7093 12.4873 28.7622 12.582C28.8031 12.6555 28.8992 12.7273 29.0505 12.7971C29.2468 12.8977 29.383 13.0162 29.4594 13.1529C29.5828 13.3737 29.6019 13.5953 29.5164 13.8178C29.4307 14.0402 29.269 14.2144 29.0313 14.3403C28.7829 14.4718 28.4947 14.4949 28.1669 14.4094C27.85 14.3184 27.6122 14.131 27.4535 13.8471C27.2477 13.4792 27.1965 13.1248 27.2999 12.7839C27.4034 12.443 27.6496 12.1696 28.0385 11.9636C28.4382 11.752 28.858 11.7138 29.2976 11.8489C29.748 11.9783 30.1201 12.3058 30.4141 12.8315L31.0137 13.9037C31.1665 14.177 31.344 14.3692 31.546 14.4802C31.759 14.5855 31.9735 14.5809 32.1895 14.4664L32.9026 14.0889L31.3331 11.282C31.2802 11.1874 31.2233 11.1357 31.1624 11.127C31.1065 11.1023 31.0299 11.1157 30.9327 11.1671L30.3168 11.4932L30.1052 11.1147L33.638 9.24426L33.8496 9.62277L33.3312 9.89725C33.2339 9.94872 33.1754 10.007 33.1557 10.0719C33.1407 10.1206 33.1596 10.1922 33.2125 10.2869L34.782 13.0938L35.4951 12.7162C35.7112 12.6018 35.8261 12.4319 35.8402 12.2065C35.8651 11.9754 35.8011 11.7231 35.6481 11.4498L35.0485 10.3776C34.7545 9.85191 34.6688 9.37283 34.791 8.94026C34.924 8.50196 35.1902 8.17692 35.59 7.9653C35.9789 7.75936 36.3486 7.70672 36.6989 7.80739C37.0492 7.90805 37.3273 8.14242 37.533 8.51035C37.6917 8.79418 37.7189 9.09311 37.6145 9.40724C37.5209 9.71569 37.3498 9.93571 37.1013 10.0673C36.8637 10.1931 36.6256 10.2306 36.3871 10.1797C36.1487 10.1289 35.9676 9.99304 35.8442 9.77224C35.7678 9.63559 35.7395 9.45985 35.7594 9.24497C35.7813 9.08356 35.7718 8.96604 35.7303 8.89242C35.6774 8.79783 35.597 8.77911 35.4889 8.83632C35.3377 8.91639 35.252 9.06388 35.2321 9.27876C35.2122 9.49368 35.2994 9.77459 35.4935 10.1215L36.1017 11.2096C36.2428 11.462 36.3222 11.6789 36.3396 11.8603C36.3681 12.0361 36.3253 12.2223 36.211 12.419L36.255 12.4978C36.858 12.2739 37.396 12.2343 37.8689 12.3791C38.3527 12.518 38.771 12.9029 39.1237 13.5337L39.6968 14.5587C39.8555 14.8426 40.0538 14.9215 40.2915 14.7957C40.4967 14.687 40.5602 14.4626 40.4821 14.1224C40.4039 13.7823 40.2474 13.402 40.0122 12.9815L40.4335 12.7585C40.8214 13.4523 41.0132 14.0457 41.0088 14.5385C41.0038 15.0314 40.7206 15.4265 40.1593 15.724C39.63 16.0042 39.1351 16.0959 38.6748 15.999C38.2146 15.902 37.8375 15.5908 37.5436 15.0652L36.8471 13.8194C36.6766 13.5145 36.4742 13.3151 36.2397 13.2213C36.0052 13.1274 35.7797 13.1376 35.5637 13.2518L35.0289 13.535L36.6867 16.4996C36.7396 16.5942 36.794 16.654 36.8499 16.6788C36.9108 16.6876 36.9899 16.6662 37.0871 16.6147L37.6056 16.3402L37.8172 16.7187L34.2844 18.5891L34.0728 18.2106L34.6886 17.8846C34.7859 17.8331 34.8418 17.783 34.8566 17.7343C34.8761 17.6694 34.8596 17.5896 34.8072 17.495L33.1495 14.5304L32.6148 14.8136C32.3987 14.928 32.2675 15.1064 32.2211 15.349C32.1747 15.5916 32.2367 15.8653 32.4072 16.1702L33.1038 17.4159C33.3977 17.9416 33.4615 18.4187 33.2952 18.8474C33.1288 19.2761 32.7809 19.6306 32.2515 19.9109C31.6897 20.2083 31.195 20.2251 30.7673 19.9612C30.3396 19.6971 29.9316 19.2182 29.5436 18.5243Z" fill="#2C7BE5"/>
<path d="M41.8287 10.4276C41.4913 9.18983 41.5614 8.06979 42.0388 7.06742C42.5164 6.06505 43.2544 5.43488 44.2531 5.17708C44.9783 4.98993 45.6643 5.07917 46.311 5.44463C46.9697 5.80708 47.5018 6.38166 47.9072 7.16852C48.0913 7.51722 48.2906 8.08489 48.505 8.87151L44.1538 9.99469C44.2548 10.3649 44.3322 10.6482 44.3857 10.8449C44.4512 11.0385 44.5305 11.2595 44.6237 11.5078C44.7287 11.7531 44.841 11.9779 44.9603 12.1824C45.184 12.5828 45.485 12.8704 45.8635 13.0451C46.242 13.2198 46.6273 13.2565 47.0196 13.1553C47.3168 13.0785 47.5697 12.9328 47.7784 12.718C47.9989 12.5001 48.1533 12.2497 48.2416 11.9669C48.3419 11.681 48.4061 11.3796 48.4343 11.0628C48.4622 10.746 48.4472 10.4342 48.3893 10.1273L48.853 10.0076C48.9049 10.2914 48.9314 10.5755 48.9326 10.8599C48.9326 11.1444 48.8923 11.4396 48.8115 11.7455C48.7294 12.0515 48.6158 12.3347 48.4705 12.5951C48.3251 12.8555 48.1093 13.0908 47.823 13.3008C47.5367 13.5109 47.1974 13.6666 46.805 13.7679C45.6875 14.0563 44.6587 13.8761 43.7183 13.2273C42.7899 12.5755 42.1598 11.6423 41.8287 10.4276ZM44.0213 9.50877L46.3039 8.91961C45.9697 7.69339 45.6404 6.81252 45.3163 6.27705C45.0041 5.73857 44.628 5.52609 44.1882 5.63962C43.7483 5.75315 43.5241 6.12062 43.5153 6.74199C43.5203 7.36025 43.6889 8.28254 44.0213 9.50877Z" fill="#2C7BE5"/>
<path d="M51.145 8.27543C51.0893 7.45142 51.1983 6.69481 51.4721 6.0056C51.746 5.31639 52.1698 4.74948 52.7437 4.30492C53.3176 3.86036 53.979 3.6141 54.7277 3.56612C55.1695 3.53796 55.5732 3.58401 55.9388 3.70438C56.3044 3.82486 56.5935 3.99825 56.8059 4.22454C57.0308 4.45 57.2081 4.70254 57.3379 4.9821C57.467 5.24966 57.5411 5.52681 57.5605 5.81345C57.5895 6.24335 57.48 6.62816 57.2319 6.96793C56.983 7.29571 56.6683 7.4718 56.2878 7.49617C56.0055 7.51414 55.7669 7.45147 55.5724 7.30812C55.3769 7.15273 55.27 6.93769 55.2515 6.66304C55.229 6.32866 55.4039 5.99956 55.7763 5.67581C56.0547 5.41811 56.1855 5.16382 56.1685 4.91301C56.1515 4.66225 56.0441 4.44128 55.8463 4.25006C55.6476 4.04688 55.3336 3.95907 54.904 3.9866C53.7872 4.05813 53.3196 5.43741 53.5014 8.12445C53.5304 8.55435 53.5522 8.87679 53.5672 9.09176C53.5932 9.29401 53.6281 9.53765 53.6721 9.82264C53.7283 10.1069 53.7948 10.3605 53.8715 10.5835C54.0119 11.0183 54.2505 11.3568 54.5873 11.5991C54.9242 11.8414 55.2953 11.9496 55.7003 11.9236C56.0071 11.9037 56.284 11.808 56.5313 11.6365C56.7907 11.464 56.9919 11.2472 57.1345 10.9862C57.2894 10.7244 57.4118 10.4407 57.5021 10.1351C57.5923 9.82946 57.6393 9.52051 57.6428 9.20842L58.1214 9.17783C58.1164 9.46603 58.0864 9.74983 58.0311 10.0292C57.9761 10.3086 57.8781 10.5908 57.7371 10.8757C57.5961 11.1606 57.4286 11.4172 57.2345 11.6455C57.0404 11.8738 56.7821 12.0643 56.4596 12.2169C56.1372 12.3695 55.7734 12.4587 55.3684 12.4847C54.2148 12.5586 53.2406 12.1893 52.446 11.3766C51.6637 10.5631 51.2298 9.52938 51.145 8.27543Z" fill="#2C7BE5"/>
<path d="M60.4551 7.15678L60.9885 3.63867L68.3184 4.47092L68.005 8.0141L67.4918 7.95577C67.4728 7.49572 67.3682 6.92353 67.1776 6.23918C67.0659 5.82885 66.8988 5.46652 66.6765 5.1521C66.4664 4.83908 66.2269 4.66729 65.9581 4.63675C65.836 4.62266 65.7543 4.63141 65.7134 4.66298C65.6725 4.69454 65.6449 4.76973 65.6306 4.88855L64.7881 11.914C64.7752 12.021 64.7843 12.1003 64.8152 12.152C64.8596 12.1933 64.9368 12.2202 65.0469 12.2326L66.0733 12.3492L66.0215 12.7771L61.257 12.2362L61.3087 11.8081L62.3349 11.9247C62.4448 11.9373 62.5202 11.9278 62.5611 11.8962C62.6157 11.8545 62.6495 11.78 62.6624 11.6727L63.5049 4.64724C63.5193 4.52836 63.5102 4.44903 63.4778 4.40921C63.4454 4.36939 63.3682 4.34249 63.2461 4.32865C62.9773 4.29806 62.6974 4.41087 62.4067 4.66707C62.1281 4.92463 61.8859 5.24056 61.6801 5.61481C61.5223 5.89816 61.3843 6.17164 61.266 6.43532C61.1477 6.69905 61.0685 6.89496 61.0284 7.02296L60.9684 7.21484L60.4551 7.15678Z" fill="#2C7BE5"/>
<path d="M73.8303 7.10952C73.44 7.65246 73.0167 8.60053 72.5603 9.95374C72.104 11.307 71.8679 12.3147 71.8516 12.9771C71.8351 13.6395 72.084 14.0529 72.5983 14.217C73.1125 14.3813 73.5648 14.1919 73.9551 13.6489C74.3453 13.1059 74.7685 12.1578 75.2248 10.8046C75.6812 9.45136 75.9175 8.44359 75.9337 7.78119C75.9502 7.11878 75.7012 6.70544 75.1868 6.54126C74.6727 6.37708 74.2205 6.56653 73.8303 7.10952ZM70.0394 11.0382C70.021 10.4402 70.1133 9.83993 70.3167 9.23726C70.5199 8.63459 70.8091 8.10348 71.1842 7.64381C71.563 7.17278 71.9775 6.80751 72.4274 6.54811C72.8812 6.27734 73.3606 6.10301 73.8659 6.02502C74.3712 5.94703 74.8575 5.98262 75.325 6.1319C75.7924 6.28117 76.206 6.53287 76.5655 6.88696C76.9251 7.24111 77.2052 7.65806 77.4058 8.13782C77.6103 8.60618 77.7218 9.13932 77.7403 9.73723C77.7627 10.3237 77.6721 10.9184 77.4687 11.521C77.2654 12.1238 76.9744 12.6606 76.5955 13.1317C76.2204 13.5913 75.8058 13.9565 75.352 14.2273C74.9021 14.4866 74.4247 14.6553 73.9194 14.7334C73.4142 14.8114 72.9278 14.7757 72.4603 14.6264C71.9929 14.4771 71.5794 14.2255 71.2198 13.8713C70.8603 13.5172 70.5784 13.1059 70.3739 12.6376C70.1732 12.1578 70.0617 11.6247 70.0394 11.0382Z" fill="#2C7BE5"/>
<path d="M80.7024 17.0984C80.6474 17.1919 80.6237 17.2683 80.6313 17.3277C80.6557 17.3826 80.7159 17.4369 80.812 17.4904L81.4208 17.8289C81.7624 18.0189 82.1134 18.0004 82.4734 17.7735C82.8335 17.5463 83.1537 17.1938 83.4345 16.7158C83.7153 16.2379 83.8557 15.806 83.8557 15.42C83.8558 15.034 83.685 14.7459 83.3433 14.5559L82.4783 14.0748L80.7024 17.0984ZM82.7349 13.6384L83.4877 14.0571C84.0643 14.3778 84.6425 14.0446 85.2224 13.0575C85.497 12.5899 85.6274 12.1869 85.6136 11.8484C85.6087 11.5159 85.4738 11.2754 85.2089 11.127L84.7123 10.8507C84.6162 10.7972 84.5345 10.7795 84.4674 10.7975C84.4171 10.8111 84.3645 10.8646 84.3095 10.9578L82.7349 13.6384ZM77.6133 16.2073L77.833 15.8333L78.4415 16.1718C78.5376 16.2252 78.611 16.2452 78.6614 16.2316C78.7285 16.2136 78.7895 16.1579 78.8445 16.0646L82.4515 9.92384C82.5064 9.83032 82.5217 9.75612 82.4972 9.7012C82.4897 9.64181 82.4379 9.58537 82.3416 9.5319L81.7329 9.19331L81.9526 8.81934L85.8128 10.9663C86.5283 11.3642 87.0026 11.8348 87.2359 12.3782C87.48 12.9275 87.4373 13.4827 87.1077 14.0437C86.833 14.5113 86.4263 14.7814 85.8878 14.8541C85.366 14.9223 84.8009 14.8354 84.1922 14.5933L84.1555 14.656C84.8618 15.1178 85.3332 15.6418 85.5696 16.2282C85.806 16.8146 85.7501 17.404 85.4022 17.9962C85.0787 18.5469 84.586 18.8793 83.9239 18.9936C83.2618 19.1078 82.6051 18.9838 81.9537 18.6215L77.6133 16.2073Z" fill="#2C7BE5"/>
<path d="M92.6397 17.0632C92.0625 17.4146 91.2921 18.1264 90.3286 19.1985C89.3652 20.2706 88.743 21.1084 88.462 21.712C88.181 22.3155 88.2443 22.7906 88.6517 23.1373C89.0591 23.4839 89.5513 23.4815 90.1285 23.13C90.7058 22.7786 91.4762 22.0668 92.4396 20.9947C93.4031 19.9225 94.0255 19.0847 94.3064 18.4811C94.5874 17.8776 94.5241 17.4025 94.1167 17.0559C93.7094 16.7092 93.217 16.7117 92.6397 17.0632ZM87.5727 19.2382C87.7959 18.6808 88.1219 18.1633 88.551 17.6858C88.9801 17.2083 89.4596 16.8293 89.9894 16.5488C90.5274 16.2593 91.0556 16.0807 91.5739 16.013C92.1003 15.9363 92.6117 15.9582 93.1081 16.0786C93.6045 16.1989 94.0378 16.4166 94.4082 16.7317C94.7786 17.0469 95.0581 17.4358 95.2469 17.8985C95.4356 18.3612 95.526 18.8514 95.5181 19.3693C95.5182 19.8782 95.4068 20.4114 95.1836 20.9687C94.9686 21.5171 94.6465 22.03 94.2174 22.5076C93.7884 22.9851 93.3047 23.3685 92.7667 23.658C92.2369 23.9385 91.7089 24.1171 91.1825 24.1939C90.6642 24.2615 90.1567 24.2352 89.6603 24.1149C89.1639 23.9946 88.7305 23.7768 88.3602 23.4617C87.9899 23.1466 87.7103 22.7577 87.5215 22.295C87.3328 21.8323 87.2384 21.3466 87.2383 20.8377C87.2463 20.3198 87.3577 19.7865 87.5727 19.2382Z" fill="#2C7BE5"/>
<path d="M92.4336 26.8996L92.7814 26.633L93.2152 27.1688C93.2837 27.2534 93.3439 27.2987 93.3958 27.3048C93.4649 27.3125 93.543 27.2831 93.6299 27.2166L99.3395 22.8392C99.4264 22.7725 99.4691 22.7092 99.4676 22.6494C99.4835 22.5916 99.4573 22.5204 99.3886 22.4358L98.9548 21.8999L99.3025 21.6333L103.413 26.7097L100.612 28.9941L100.293 28.5993C100.591 28.3099 100.914 27.8487 101.263 27.2157C101.475 26.8396 101.607 26.4331 101.661 25.9961C101.722 25.5685 101.638 25.2137 101.41 24.9317L101.079 24.5227C101.01 24.4381 100.941 24.3919 100.872 24.3839C100.82 24.3781 100.751 24.4084 100.664 24.4749L94.9543 28.8524C94.8674 28.919 94.8161 28.9813 94.8002 29.0391C94.8002 29.099 94.8352 29.1712 94.9051 29.2558L95.339 29.7916L94.9912 30.0583L92.4336 26.8996Z" fill="#2C7BE5"/>
<path d="M105.28 32.0528C104.611 32.1754 103.627 32.5651 102.329 33.2219C101.03 33.8787 100.137 34.4383 99.649 34.9007C99.1614 35.3631 99.0422 35.8279 99.2917 36.2951C99.5413 36.7624 100.001 36.9348 100.67 36.8122C101.339 36.6896 102.323 36.2999 103.622 35.6431C104.92 34.9864 105.814 34.4268 106.301 33.9644C106.789 33.502 106.908 33.0371 106.658 32.5699C106.409 32.1026 105.95 31.9302 105.28 32.0528ZM99.7472 32.2816C100.164 31.8417 100.661 31.4754 101.24 31.183C101.818 30.8904 102.406 30.7075 103.005 30.6342C103.614 30.5553 104.173 30.5762 104.681 30.6968C105.2 30.812 105.668 31.0137 106.085 31.3018C106.502 31.5898 106.825 31.9463 107.051 32.3711C107.278 32.7959 107.393 33.2571 107.395 33.7549C107.4 34.2527 107.301 34.7413 107.097 35.2208C106.907 35.6947 106.603 36.1516 106.187 36.5916C105.781 37.026 105.289 37.3895 104.711 37.682C104.132 37.9745 103.538 38.1602 102.929 38.239C102.331 38.3123 101.772 38.2915 101.253 38.1764C100.745 38.0556 100.282 37.8512 99.865 37.5632C99.4478 37.2751 99.1257 36.9187 98.8988 36.4939C98.672 36.0691 98.5574 35.6078 98.5549 35.11C98.5499 34.6122 98.6438 34.1264 98.8367 33.6524C99.038 33.1729 99.3415 32.716 99.7472 32.2816Z" fill="#2C7BE5"/>
<path d="M105.172 45.2178L105.248 45.6787C104.082 45.8606 103.532 46.1524 103.599 46.5542C103.642 46.8142 103.827 46.9185 104.155 46.8673L105.266 46.694C105.958 46.586 106.491 46.6847 106.866 46.9899C107.252 47.2933 107.552 47.7556 107.766 48.3767L107.858 48.3628C107.868 46.7612 108.437 45.8723 109.567 45.6961C110.247 45.59 110.833 45.7835 111.326 46.2764C111.83 46.7674 112.159 47.4797 112.313 48.4132L112.988 52.5078L112.55 52.5763L112.457 52.009C112.439 51.9027 112.402 51.8297 112.346 51.79C112.304 51.7604 112.228 51.7541 112.119 51.7711L104.941 52.8907C104.832 52.9077 104.756 52.9377 104.713 52.9808C104.685 53.0337 104.679 53.1134 104.697 53.2198L104.808 53.8933L104.371 53.9618L103.717 49.9913L104.154 49.9228L104.265 50.5964C104.282 50.7028 104.312 50.7708 104.354 50.8006C104.411 50.8404 104.494 50.8518 104.603 50.8348L108.027 50.3006L107.914 49.6093C107.783 48.8175 107.293 48.4879 106.443 48.6206L105.058 48.8365C104.451 48.9313 103.968 48.831 103.607 48.5356C103.247 48.2403 103.02 47.8031 102.924 47.2241C102.825 46.6214 102.974 46.1677 103.373 45.8632C103.771 45.5586 104.371 45.3439 105.172 45.2188L105.172 45.2178ZM111.917 48.7292C111.786 47.9375 111.12 47.6353 109.917 47.8229C108.715 48.0104 108.179 48.5001 108.31 49.2919L108.464 50.2313L111.78 49.7141C111.889 49.6971 111.958 49.6621 111.987 49.6091C112.028 49.5542 112.04 49.4737 112.022 49.3674L111.917 48.7292Z" fill="#2C7BE5"/>
<path d="M105.269 55.8454C105.555 55.6969 105.883 55.6273 106.252 55.6366C106.621 55.6458 106.932 55.7672 107.184 56.0009C107.436 56.2466 107.557 56.5311 107.549 56.8541C107.541 57.1412 107.449 57.3724 107.272 57.5476C107.095 57.7228 106.89 57.8074 106.657 57.8015C106.3 57.7928 106.027 57.6244 105.839 57.2963C105.674 57.0408 105.505 56.9109 105.333 56.9066C105.038 56.8993 104.819 57.0255 104.677 57.2853C104.535 57.5451 104.458 57.8785 104.448 58.2852C104.437 58.692 104.619 59.0079 104.995 59.2327C105.383 59.4579 105.933 59.5793 106.646 59.5971C107.888 59.6282 108.519 59.2668 108.539 58.5129L108.581 56.8798L109.098 56.8929L109.055 58.5081C109.05 58.6517 109.071 58.7839 109.119 58.9047C109.165 59.0256 109.242 59.1173 109.351 59.1799C109.46 59.2545 109.569 59.311 109.679 59.3497C109.788 59.4003 109.923 59.4336 110.083 59.4495C110.242 59.4777 110.377 59.493 110.487 59.4954C110.598 59.51 110.739 59.5194 110.911 59.5237C112.116 59.5539 112.727 59.228 112.745 58.5459C112.754 58.199 112.603 57.8719 112.291 57.5649C111.992 57.2581 111.617 57.0093 111.167 56.8185C110.717 56.6277 110.235 56.4781 109.721 56.3695L109.732 55.9387L113.144 56.0238L113.133 56.4545L112.686 56.587C112.55 56.6316 112.48 56.7018 112.478 56.7973C112.478 56.8691 112.536 56.9843 112.653 57.1429C113.021 57.6668 113.196 58.2399 113.18 58.862C113.157 59.7474 112.93 60.4301 112.499 60.9102C112.068 61.3903 111.533 61.6224 110.893 61.6065C110.426 61.5948 110.007 61.4048 109.635 61.0365C109.263 60.668 109.023 60.2071 108.915 59.6537H108.804C108.444 61.1771 107.637 61.9232 106.383 61.8919C105.633 61.8735 105.039 61.5354 104.601 60.8778C104.175 60.2207 103.977 59.3299 104.007 58.2052C104.015 57.8822 104.067 57.5662 104.161 57.2573C104.255 56.9603 104.391 56.6883 104.57 56.4414C104.749 56.1944 104.981 55.9968 105.268 55.8483L105.269 55.8454Z" fill="#2C7BE5"/>
<path d="M102.397 69.9414L102.826 70.0504L102.677 70.6062C102.649 70.7105 102.649 70.7844 102.677 70.8282C102.711 70.8866 102.783 70.9295 102.89 70.9567L109.922 72.746C110.03 72.7732 110.107 72.7681 110.155 72.7307C110.212 72.7079 110.255 72.6444 110.283 72.5404L110.432 71.9847L110.86 72.0936L109.843 75.88L109.415 75.7711L109.592 75.111C109.62 75.0068 109.616 74.9254 109.581 74.867C109.555 74.8233 109.488 74.7878 109.381 74.7605L102.349 72.9712C102.242 72.944 102.16 72.9416 102.103 72.9639C102.055 73.0013 102.017 73.0721 101.988 73.1762L101.811 73.8361L101.383 73.7272L102.397 69.9414ZM104.199 63.2373L104.627 63.3462L104.45 64.0062C104.422 64.1105 104.422 64.1845 104.45 64.2284C104.485 64.2868 104.556 64.3296 104.663 64.3568L111.696 66.146C111.803 66.1732 111.881 66.1681 111.929 66.1307C111.986 66.1079 112.028 66.0445 112.056 65.9405L112.233 65.2806L112.662 65.3895L111.626 69.2453L111.197 69.1363L111.356 68.5458C111.387 68.43 111.379 68.3414 111.332 68.28C111.285 68.2185 111.184 68.168 111.029 68.1287L108.013 67.3612L107.612 68.855C107.419 69.5728 107.038 70.1131 106.47 70.4758C105.903 70.8385 105.297 70.9381 104.655 70.7746C104.012 70.6111 103.529 70.2346 103.204 69.6448C102.88 69.055 102.814 68.4011 103.007 67.6832L104.199 63.2373ZM104.12 66.3716C104.012 66.3444 103.93 66.3419 103.874 66.3643C103.825 66.4017 103.787 66.4723 103.759 66.5763L103.629 67.0627C103.529 67.4332 103.633 67.7566 103.94 68.0327C104.247 68.3087 104.675 68.5164 105.222 68.6556C105.769 68.7949 106.24 68.8158 106.635 68.7183C107.03 68.6208 107.277 68.3868 107.377 68.0162L107.582 67.2521L104.12 66.3716Z" fill="#2C7BE5"/>
<path d="M100.748 75L101.136 75.2065L100.8 75.8052C100.747 75.8998 100.728 75.9714 100.743 76.0201C100.762 76.0851 100.821 76.1434 100.918 76.195L107.297 79.5852C107.395 79.6368 107.471 79.6502 107.527 79.6252C107.588 79.6165 107.645 79.5649 107.698 79.4706L108.034 78.8718L108.423 79.0784L106.495 82.5131L106.106 82.3066L106.389 81.8024C106.442 81.7078 106.459 81.6281 106.44 81.5632C106.425 81.5144 106.369 81.4642 106.272 81.4126L103.389 79.881L102.832 80.8736C102.709 81.0942 102.704 81.3029 102.817 81.4997C102.931 81.6965 103.128 81.8695 103.409 82.0187L104.51 82.6038C105.05 82.8906 105.389 83.248 105.527 83.676C105.659 84.1144 105.616 84.528 105.398 84.9167C105.186 85.2949 104.905 85.534 104.554 85.6341C104.204 85.7342 103.84 85.6839 103.462 85.4831C103.17 85.3282 102.981 85.0912 102.894 84.7721C102.807 84.4531 102.828 84.178 102.957 83.9469C103.087 83.7158 103.266 83.5587 103.495 83.4758C103.724 83.3928 103.951 83.4115 104.178 83.5319C104.318 83.6064 104.44 83.7393 104.543 83.9304C104.615 84.0775 104.688 84.1712 104.764 84.2114C104.861 84.263 104.939 84.2362 104.998 84.1312C105.081 83.9841 105.07 83.8151 104.967 83.624C104.864 83.4329 104.635 83.2427 104.278 83.0534L103.161 82.4596C102.902 82.322 102.715 82.1815 102.599 82.0382C102.483 81.8949 102.416 81.7158 102.396 81.5009L102.315 81.4578C101.933 81.9639 101.503 82.2807 101.025 82.4085C100.541 82.5468 99.975 82.4438 99.3273 82.0997L98.2749 81.5403C97.9834 81.3855 97.773 81.4236 97.6433 81.6547C97.4429 82.0118 97.8607 82.4658 98.897 83.0164L98.6671 83.4261C97.9546 83.0475 97.4631 82.6498 97.1924 82.2333C96.9218 81.8167 96.9366 81.3405 97.2372 80.8048C97.5261 80.2901 97.8909 79.9522 98.3317 79.791C98.7725 79.6298 99.2629 79.6926 99.8027 79.9794L101.082 80.6593C101.395 80.8256 101.676 80.8863 101.925 80.8416C102.175 80.7969 102.358 80.6695 102.476 80.4593L102.936 79.64L99.8921 78.0224C99.7949 77.9708 99.7159 77.9492 99.655 77.9576C99.5991 77.9824 99.5445 78.042 99.4915 78.1366L99.2086 78.6408L98.8198 78.4342L100.748 75Z" fill="#2C7BE5"/>
<path d="M95.9792 86.3378C95.5218 85.9559 95.1324 85.7727 94.8109 85.7881C94.4893 85.8037 94.2366 85.9158 94.0525 86.1246C93.7401 86.4788 93.7012 86.9273 93.9357 87.47L96.7078 89.7847L97.1006 88.7879C97.3985 88.0274 97.0246 87.2107 95.9792 86.3378ZM97.319 84.5704C97.5803 84.7887 97.779 85.0412 97.9149 85.3282C98.0509 85.6151 98.1341 85.8975 98.1646 86.1754C98.195 86.4532 98.1795 86.7555 98.1182 87.0826C98.066 87.4176 97.997 87.7071 97.9115 87.9511C97.8353 88.2029 97.7351 88.4819 97.6108 88.7882L97.086 90.1003L98.0381 90.8952C98.5141 91.2927 98.9436 91.4858 99.3265 91.4743C99.7094 91.4626 100.033 91.307 100.297 91.0075C100.513 90.7622 100.645 90.4936 100.692 90.2015C100.748 89.9173 100.674 89.6894 100.468 89.5179C100.3 89.3777 100.101 89.3373 99.8698 89.3968C99.6737 89.4538 99.501 89.4752 99.3516 89.4609C99.2115 89.4542 99.0621 89.3846 98.9034 89.2524C98.6701 89.0575 98.5608 88.8322 98.5756 88.5765C98.5906 88.3207 98.6861 88.093 98.8621 87.8932C99.0704 87.657 99.33 87.5189 99.6408 87.4789C99.953 87.4555 100.263 87.5725 100.571 87.8298C100.926 88.126 101.147 88.4999 101.235 88.9517C101.324 89.4204 101.294 89.8682 101.144 90.2952C101.004 90.73 100.789 91.1109 100.501 91.4379C100.293 91.6741 100.069 91.8817 99.8304 92.0607C99.5915 92.2397 99.3199 92.3914 99.0157 92.5159C98.7114 92.6404 98.4033 92.7142 98.0911 92.7374C97.779 92.7607 97.448 92.7132 97.0986 92.5948C96.7491 92.4764 96.4111 92.281 96.0845 92.0082L92.542 89.0505C92.2059 88.7699 91.9578 88.7205 91.7976 88.9021C91.6535 89.0656 91.6855 89.3052 91.8934 89.6207C92.1014 89.9363 92.3874 90.246 92.7514 90.5499L92.415 90.9314C91.7336 90.3625 91.3222 89.8456 91.181 89.3808C91.1011 89.1406 91.0941 88.8823 91.1595 88.6059C91.217 88.3385 91.3458 88.0913 91.546 87.8642C91.8744 87.4918 92.1834 87.2608 92.4729 87.1714C92.7624 87.082 93.0939 87.082 93.4675 87.1714L93.4914 87.1444C93.3077 86.3603 93.5043 85.6412 94.081 84.9873C94.2411 84.8056 94.4072 84.6447 94.5793 84.5046C94.7515 84.3645 94.9471 84.2439 95.166 84.1428C95.3861 84.0585 95.6088 84.008 95.8343 83.9911C96.0517 83.9834 96.2906 84.0251 96.5507 84.1162C96.8108 84.2072 97.0668 84.3578 97.3188 84.5683L97.319 84.5704Z" fill="#2C7BE5"/>
<path fill-rule="evenodd" clip-rule="evenodd" d="M53.7739 78.7567C53.3232 77.6985 52.5573 76.2604 52.0282 75.4788C50.1262 72.6688 47.0165 70.2701 43.8377 69.1607L43.2617 68.9597L43.9974 67.8945C44.4313 67.2663 44.8004 66.621 44.8971 66.3219C45.1439 65.5586 46.063 64.5311 46.8198 64.1727C47.0874 64.0459 47.1256 64.0496 47.4286 64.2319C47.6151 64.344 47.8579 64.4144 48.0026 64.3982C48.2185 64.3741 48.257 64.3263 48.2805 64.0538C48.3025 63.7986 48.2456 63.665 47.9865 63.3632C47.6936 63.0221 47.6652 62.9404 47.6652 62.438C47.6652 62.1349 47.7062 61.3954 47.7564 60.7947C47.8065 60.194 47.8871 57.445 47.9356 54.6857C48.0265 49.5126 48.0675 48.9053 48.4316 47.336C48.6837 46.2496 48.8946 44.696 49.0231 42.9784C49.1336 41.5004 49.2579 40.5504 49.4493 39.7213C49.5455 39.3047 49.5955 38.6059 49.6037 37.5645C49.6148 36.1403 49.6318 35.9921 49.8277 35.6034C49.9443 35.3721 50.2021 35.0475 50.4007 34.8821C50.9216 34.4482 51.3825 34.376 52.55 34.5455C53.3776 34.6656 53.6963 34.6688 55.0157 34.5707C57.8754 34.3581 59.3686 34.6883 60.095 35.6939C60.3258 36.0136 60.3703 36.172 60.421 36.8561C60.4644 37.4422 60.5228 37.6945 60.6455 37.8264C60.8755 38.0738 60.9945 38.0515 61.3385 37.6965C61.5028 37.5271 61.7095 37.3884 61.798 37.3884C62.0375 37.3884 62.6464 37.9635 62.8587 38.3902C63.1204 38.9162 63.098 39.199 62.7693 39.5188C62.5202 39.7611 62.4513 39.7829 62.0517 39.7456C61.0094 39.6481 59.8558 38.744 59.1536 37.4743C58.4705 36.239 58.329 36.138 57.9019 36.5805C57.6262 36.866 56.3905 37.2128 55.6523 37.2117C55.0641 37.2109 53.8262 36.9123 53.2663 36.6362C53.0137 36.5117 52.6985 36.422 52.5657 36.4369C52.2005 36.478 52.1895 36.8684 52.5403 37.3437C52.9239 37.8635 53.0247 38.3916 52.9493 39.4869L52.8862 40.403L52.4356 40.3511C51.5395 40.2478 51.4291 40.5958 52.0135 41.682C52.4821 42.5531 52.5586 43.0146 52.2794 43.2862C52.121 43.4404 52.0109 43.4719 51.765 43.433C51.3926 43.3743 51.0595 43.4808 50.9792 43.6843C50.9473 43.7652 50.9994 44.0035 51.0951 44.2139C51.331 44.733 51.6619 44.8207 53.3647 44.8158C54.7819 44.8117 56.0196 44.7006 57.7977 44.4178C60.0213 44.0641 61.4773 44.1899 62.1882 44.7972C62.59 45.1406 62.6883 45.4718 62.6685 46.416C62.653 47.1537 62.6725 47.2461 62.9745 47.8642C63.3205 48.5723 63.6212 49.7114 63.5705 50.1217L63.5394 50.3731L63.3498 50.021C63.2456 49.8273 63.071 49.4045 62.9618 49.0815C62.7147 48.3499 62.2159 47.7774 61.5644 47.4775C61.2827 47.3479 60.5673 47.1669 59.8262 47.0378C58.2305 46.7598 58.0245 46.7382 55.9431 46.6295C54.005 46.5283 52.6428 46.3436 51.9346 46.0858C51.3494 45.8728 51.0391 45.9261 50.9545 46.2541C50.9031 46.4532 50.9472 46.5351 51.238 46.7796C51.6724 47.145 52.7358 47.5472 53.7288 47.7218C54.1506 47.7959 55.3302 47.9005 56.3502 47.9543C58.1441 48.0489 58.5548 48.0872 60.1047 48.3046C60.5027 48.3604 60.9566 48.4239 61.1133 48.4456C61.3345 48.4763 61.3887 48.5207 61.3555 48.6441C61.332 48.7316 61.4559 49.0574 61.6309 49.3681C62.1594 50.3065 62.5932 52.1526 62.5912 53.4543C62.5897 54.4277 62.5553 54.511 62.0831 54.6864C61.8616 54.7688 61.6163 54.9312 61.538 55.0475C61.4081 55.2405 61.4086 55.2782 61.5444 55.4798C61.6262 55.6013 61.9178 55.8458 62.1924 56.0233C62.6845 56.3412 62.6943 56.3434 62.8623 56.1765C63.2919 55.7499 64.1866 53.6396 64.0925 53.2748C64.06 53.1489 64.1206 52.9763 64.2651 52.7833C64.6068 52.3269 64.6887 52.0996 64.763 51.401C64.8007 51.0463 64.875 50.7139 64.928 50.6623C64.9811 50.6106 65.2313 50.549 65.4841 50.5254C65.7368 50.5018 65.9696 50.4415 66.0014 50.3915C66.1031 50.2313 65.668 49.977 65.2923 49.977C64.6606 49.977 64.2653 49.3152 63.9946 47.8047C63.7554 46.4704 63.8844 44.7656 64.2674 44.1968C64.6557 43.6201 65.5753 43.2733 65.8529 43.5988C65.9178 43.6748 66.0013 44.1365 66.042 44.6439C66.1697 46.2363 66.3411 46.7031 67.1139 47.5624C67.5384 48.0345 67.5683 48.0987 67.5683 48.5398C67.5683 48.8405 67.6851 49.3634 67.89 49.9803C68.493 51.7952 68.6171 52.7681 68.2961 53.1651C68.0259 53.4994 67.7528 54.5796 67.6667 55.6551L67.5891 56.6234L66.7133 58.381C65.708 60.3982 65.2883 61.0481 64.2404 62.2104C62.7835 63.8263 62.3831 64.446 62.3655 65.1125C62.3597 65.3337 62.3071 65.6002 62.2487 65.7048C62.1903 65.8095 61.7654 66.1612 61.3045 66.4865C60.8436 66.8118 60.2223 67.3072 59.9237 67.5873C59.2969 68.1755 58.9968 68.2823 57.9334 68.2959C57.008 68.3078 56.7785 68.3731 56.6773 68.6532C56.5663 68.9602 56.6812 69.3526 56.8981 69.4079C57.3135 69.5136 57.2086 70.2044 56.5706 71.5635C56.3499 72.0337 56.1693 72.4731 56.1693 72.54C56.1693 72.7752 55.808 73.6795 55.4101 74.4403C54.8085 75.5908 54.5173 76.7876 54.7155 77.295C54.7823 77.4659 54.7826 77.6639 54.7163 77.9534C54.5564 78.6518 54.2556 79.5557 54.183 79.5557C54.1452 79.5557 53.9611 79.1962 53.7739 78.7567ZM55.5682 67.1791C56.8143 66.865 57.6168 66.2796 57.6168 65.6849C57.6168 65.1645 57.5474 65.1763 55.5746 66.0326C55.173 66.2069 54.6234 66.3899 54.3533 66.4392C53.9131 66.5196 53.6361 66.696 53.6361 66.8959C53.6361 66.9351 53.7176 67.0464 53.8171 67.1432C54.0455 67.3654 54.7702 67.3803 55.5682 67.1791ZM57.253 61.5102C57.3449 61.4623 57.4892 61.247 57.5737 61.0317C57.7513 60.5791 57.8562 60.5189 58.2669 60.6336C58.9255 60.8174 58.9147 61.0075 58.4323 57.7348C58.3809 57.3864 58.2611 57.0434 58.1162 56.8304C57.9878 56.6417 57.8578 56.3594 57.8272 56.2032C57.7512 55.8147 57.4812 55.3005 57.0755 54.7717C56.2992 53.7594 56.1636 53.1515 56.6553 52.8876C56.8103 52.8044 56.9563 52.6247 57.0172 52.442C57.295 51.6084 58.4698 51.9018 59.0063 52.9388C59.2496 53.4091 59.277 53.8779 59.1093 54.7006C58.6285 57.0579 59.5077 59.3605 60.7618 59.0287C61.1249 58.9326 61.6028 58.3232 61.8339 57.6616C62.0784 56.9617 61.9236 56.9048 61.2759 57.4563C60.9862 57.703 60.6488 57.9293 60.526 57.9593C59.8312 58.129 59.6039 57.1987 59.9739 55.6991C60.0754 55.2875 60.1827 54.6477 60.2122 54.2773C60.2978 53.2023 59.9357 50.5163 59.6848 50.3655C59.6358 50.336 59.5253 50.3738 59.4394 50.4495C59.1861 50.6726 58.3851 50.7958 57.6141 50.7303C56.6649 50.6498 56.1214 50.4982 55.4269 50.1203C54.7029 49.7263 54.2548 49.6945 54.0346 50.0215C53.8105 50.3543 53.9912 50.6676 54.8452 51.4272L55.577 52.0781L55.3653 52.5461C55.2489 52.8035 55.1128 53.1736 55.0628 53.3685C54.8609 54.1561 55.4005 55.3778 56.002 55.4948C56.3371 55.5601 56.5461 55.9544 56.7532 56.9123C57.0287 58.1868 57.0303 58.8249 56.7603 59.8384C56.4695 60.9303 56.4493 61.3212 56.6751 61.4819C56.8687 61.6197 57.0277 61.6275 57.253 61.5102Z" fill="#F5D999"/>
<path fill-rule="evenodd" clip-rule="evenodd" d="M51.2808 105.094C45.7022 104.567 40.3107 103.722 38.4015 103.076C37.1082 102.638 32.7141 101.597 31.6073 101.467C31.1025 101.407 30.6895 101.305 30.6895 101.239C30.6895 101.174 30.8671 100.183 31.0842 99.0372C31.3014 97.8914 31.622 95.9903 31.7968 94.8127C32.3311 91.2125 32.568 91.0702 36.769 91.8241C41.7489 92.7178 47.5715 93.2716 56.4685 93.6979C61.06 93.9178 73.9128 92.8782 79.7549 91.8144C82.3292 91.3456 83.0288 91.3377 83.5948 91.7709C84.1868 92.224 84.2676 92.4886 84.725 95.4696C84.9449 96.9024 85.2614 98.801 85.4283 99.6887C85.5953 100.577 85.7152 101.319 85.6948 101.339C85.6744 101.359 85.088 101.453 84.3917 101.546C83.1289 101.716 80.1907 102.421 77.6186 103.172C75.7825 103.707 72.798 104.228 68.6797 104.731C65.5683 105.111 64.6663 105.154 59.0225 105.194C55.5986 105.218 52.1148 105.173 51.2808 105.094ZM47.5863 103.489C48.3808 103.089 48.6277 102.097 48.1192 101.346C47.8548 100.956 47.8481 100.785 48.0312 99.0943C48.1402 98.0879 48.2336 97.0804 48.2387 96.8555C48.2449 96.5817 48.3535 96.4196 48.5672 96.3652C48.8102 96.3034 48.8865 96.1533 48.8865 95.737V95.19L47.9686 95.0954C47.4638 95.0433 46.8533 94.9702 46.6118 94.9328C46.1966 94.8684 46.1729 94.8972 46.1729 95.4656C46.1729 95.8173 46.2595 96.0987 46.3818 96.1444C46.5536 96.2085 46.5511 96.6052 46.3678 98.3743C46.2452 99.5579 46.1271 100.544 46.1055 100.565C46.0838 100.587 45.5155 100.559 44.8425 100.504L43.6189 100.403V99.9384C43.6189 99.6828 43.704 98.6796 43.8079 97.709C43.9723 96.175 44.0349 95.9442 44.2868 95.9442C44.5167 95.9442 44.5766 95.8204 44.5766 95.3451V94.7459L43.5955 94.6461C41.9211 94.4758 41.906 94.4796 41.8328 95.0894C41.7849 95.4887 41.8351 95.6533 42.0223 95.7112C42.2513 95.7819 42.2571 95.9736 42.0793 97.6144C41.9706 98.618 41.8774 99.6312 41.8723 99.8662C41.8654 100.187 41.7834 100.293 41.5438 100.293C41.0859 100.293 41.0792 101.307 41.5363 101.424C41.8131 101.494 41.8276 101.556 41.6652 101.974C41.3969 102.666 41.6994 103.244 42.3294 103.244C42.6278 103.244 42.8886 103.125 43.0352 102.921L43.2678 102.598L44.3612 103.061C46.0248 103.766 46.8255 103.872 47.5863 103.489ZM57.4092 102.377C57.5909 101.917 57.5142 101.381 57.2666 101.381C56.9954 101.381 56.9533 100.387 57.1307 98.17C57.2153 97.1122 57.2816 96.8883 57.5288 96.8254C57.7455 96.7703 57.8253 96.6057 57.8253 96.214V95.678L56.5126 95.5904C55.7907 95.5423 55.1442 95.5364 55.076 95.5774C55.0079 95.6184 54.9521 95.8924 54.9521 96.1864C54.9521 96.5579 55.0251 96.7209 55.1916 96.7209C55.3727 96.7209 55.431 96.9114 55.431 97.504V98.2872L54.1939 98.2418L52.9568 98.1965L52.9086 97.381C52.8714 96.7518 52.913 96.5656 53.091 96.5656C53.3389 96.5656 53.5155 96.2452 53.5155 95.7957C53.5155 95.4632 52.9415 95.323 51.5801 95.323H50.6423V95.8589C50.6423 96.1914 50.7404 96.4482 50.9009 96.5356C51.1291 96.6599 51.1457 96.9343 51.0425 98.8732C50.9343 100.908 50.9027 101.07 50.6147 101.07C50.353 101.07 50.3116 101.162 50.3533 101.652L50.4029 102.235L51.666 102.281C53.001 102.329 53.189 102.244 53.1938 101.591C53.1951 101.408 53.0885 101.218 52.9568 101.169C52.7879 101.106 52.7174 100.85 52.7174 100.298V99.5167H53.9944H55.2714V100.353C55.2714 101.058 55.2215 101.202 54.9521 101.27C54.7086 101.332 54.6329 101.482 54.6329 101.902V102.452L55.5507 102.508C56.0555 102.539 56.6584 102.578 56.8904 102.594C57.1489 102.612 57.3498 102.528 57.4092 102.377ZM61.2772 102.468H62.1351V101.847C62.1351 101.383 62.0709 101.225 61.8824 101.225C61.5138 101.225 61.6172 101.066 62.8533 99.7303L63.9705 98.523L64.0715 98.981C64.127 99.2329 64.181 99.806 64.1914 100.254C64.2059 100.884 64.1556 101.07 63.9708 101.07C63.7979 101.07 63.7314 101.243 63.7314 101.691V102.313H64.4274C64.8102 102.313 65.453 102.269 65.8559 102.215C66.5762 102.119 66.5867 102.109 66.4898 101.632C66.4355 101.366 66.2949 101.078 66.1773 100.992C66.0312 100.886 65.9174 100.172 65.818 98.7401C65.6967 96.9917 65.7102 96.6146 65.8991 96.4708C66.0237 96.3759 66.1257 96.0789 66.1257 95.8106V95.323H64.7689H63.4121V95.9442C63.4121 96.393 63.4786 96.5655 63.6516 96.5655C63.7833 96.5655 63.891 96.6129 63.891 96.6709C63.891 96.7288 63.3523 97.3149 62.6938 97.9733L61.4967 99.1704V98.6663C61.4967 98.389 61.451 97.8378 61.3951 97.4415C61.3101 96.8376 61.3359 96.7209 61.5548 96.7209C61.7545 96.7209 61.8159 96.5696 61.8159 96.0774V95.434L60.8347 95.5338C60.2951 95.5887 59.6846 95.6336 59.478 95.6336C59.148 95.6336 59.1023 95.707 59.1023 96.2368C59.1023 96.7093 59.1715 96.8576 59.4216 96.9212C59.6947 96.9907 59.7409 97.1335 59.7418 97.9101C59.7422 98.4093 59.7888 99.3944 59.8452 100.099C59.9354 101.226 59.9161 101.381 59.6847 101.381C59.4828 101.381 59.4216 101.53 59.4216 102.021C59.4216 102.656 59.4262 102.661 59.9204 102.565C60.1947 102.512 60.8053 102.468 61.2772 102.468ZM71.3484 101.784C71.4863 101.661 71.1503 100.604 70.9733 100.604C70.8531 100.604 70.7548 100.529 70.7548 100.436C70.7548 100.174 72.8753 97.9441 72.9983 98.0774C73.0587 98.1429 73.1509 98.6713 73.2031 99.2517C73.2791 100.097 73.2514 100.324 73.064 100.394C72.8219 100.485 72.7264 101.47 72.9496 101.573C73.0155 101.603 73.6667 101.565 74.3967 101.488C75.4652 101.375 75.7065 101.303 75.6338 101.118C75.5841 100.992 75.5435 100.728 75.5435 100.532C75.5435 100.315 75.4276 100.145 75.2489 100.099C75.0043 100.037 74.9356 99.8038 74.8431 98.7221C74.7818 98.0058 74.6886 97.0179 74.636 96.5267C74.5542 95.7642 74.5786 95.6336 74.8024 95.6336C75.092 95.6336 75.1071 95.5687 74.9714 94.9085L74.8783 94.4552L73.8142 94.5705C73.2289 94.6339 72.6244 94.6893 72.4707 94.6937C71.9955 94.7073 72.1265 95.7991 72.6226 95.9598C72.7318 95.9952 72.3195 96.5729 71.6648 97.302L70.5153 98.582L70.4096 97.8456C70.2253 96.5618 70.2533 96.0996 70.5153 96.0996C70.768 96.0996 70.815 95.7907 70.6524 95.1999C70.5631 94.8754 70.4892 94.8521 69.8166 94.9363C67.7884 95.1904 67.8816 95.1555 67.8816 95.6618C67.8816 95.998 67.9709 96.1514 68.2008 96.2099C68.3764 96.2545 68.5215 96.3354 68.5232 96.3895C68.525 96.4436 68.6297 97.4303 68.756 98.5822C68.957 100.415 68.9566 100.692 68.7528 100.803C68.6167 100.877 68.52 101.16 68.52 101.484V102.039L69.9167 101.927C70.6849 101.865 71.3292 101.801 71.3484 101.784Z" fill="#F5D999"/>
</svg>
